<?xml version="1.0" encoding="us-ascii" standalone="no"?><svg xmlns="http://www.w3.org/2000/svg" xmlns:xlink="http://www.w3.org/1999/xlink" contentStyleType="text/css" height="992px" preserveAspectRatio="none" style="width:499px;height:992px;background:#FFFFFF;" version="1.1" viewBox="0 0 499 992" width="499px" zoomAndPan="magnify"><defs/><g><rect fill="#FFFFFF" height="873.2188" style="stroke:#181818;stroke-width:1.0;" width="10" x="66.5" y="75.4297"/><rect fill="#FFFFFF" height="773.7891" style="stroke:#181818;stroke-width:1.0;" width="10" x="71.5" y="158.8594"/><rect fill="#FFFFFF" height="383.3281" style="stroke:#181818;stroke-width:1.0;" width="10" x="76.5" y="549.3203"/><rect fill="none" height="75.3984" style="stroke:#000000;stroke-width:1.5;" width="321.5" x="30" y="178.8594"/><rect fill="none" height="461.7266" style="stroke:#000000;stroke-width:1.5;" width="434.5" x="10" y="436.7891"/><rect fill="none" height="388.4609" style="stroke:#000000;stroke-width:1.5;" width="414.5" x="20" y="503.0547"/><rect fill="none" height="75.3984" style="stroke:#000000;stroke-width:1.5;" width="385" x="30" y="569.3203"/><line style="stroke:#181818;stroke-width:0.5;stroke-dasharray:5.0,5.0;" x1="71" x2="71" y1="36.2969" y2="957.6484"/><line style="stroke:#181818;stroke-width:0.5;stroke-dasharray:5.0,5.0;" x1="286.5" x2="286.5" y1="36.2969" y2="957.6484"/><line style="stroke:#181818;stroke-width:0.5;stroke-dasharray:5.0,5.0;" x1="387.5" x2="387.5" y1="119.0781" y2="957.6484"/><line style="stroke:#181818;stroke-width:0.5;stroke-dasharray:5.0,5.0;" x1="463.5" x2="463.5" y1="36.2969" y2="957.6484"/><rect fill="#E2E2F0" height="30.2969" rx="2.5" ry="2.5" style="stroke:#181818;stroke-width:0.5;" width="63" x="40" y="5"/><text fill="#000000" font-family="sans-serif" font-size="14" lengthAdjust="spacing" textLength="49" x="47" y="24.9951">Sensor</text><rect fill="#E2E2F0" height="30.2969" rx="2.5" ry="2.5" style="stroke:#181818;stroke-width:0.5;" width="63" x="40" y="956.6484"/><text fill="#000000" font-family="sans-serif" font-size="14" lengthAdjust="spacing" textLength="49" x="47" y="976.6436">Sensor</text><rect fill="#E2E2F0" height="30.2969" rx="2.5" ry="2.5" style="stroke:#181818;stroke-width:0.5;" width="110" x="231.5" y="5"/><text fill="#000000" font-family="sans-serif" font-size="14" lengthAdjust="spacing" textLength="96" x="238.5" y="24.9951">Measurement</text><rect fill="#E2E2F0" height="30.2969" rx="2.5" ry="2.5" style="stroke:#181818;stroke-width:0.5;" width="110" x="231.5" y="956.6484"/><text fill="#000000" font-family="sans-serif" font-size="14" lengthAdjust="spacing" textLength="96" x="238.5" y="976.6436">Measurement</text><rect fill="#E2E2F0" height="30.2969" rx="2.5" ry="2.5" style="stroke:#181818;stroke-width:0.5;" width="73" x="351.5" y="956.6484"/><text fill="#000000" font-family="sans-serif" font-size="14" lengthAdjust="spacing" textLength="59" x="358.5" y="976.6436">Similarity</text><rect fill="#E2E2F0" height="30.2969" rx="2.5" ry="2.5" style="stroke:#181818;stroke-width:0.5;" width="59" x="434.5" y="5"/><text fill="#000000" font-family="sans-serif" font-size="14" lengthAdjust="spacing" textLength="45" x="441.5" y="24.9951">Vector</text><rect fill="#E2E2F0" height="30.2969" rx="2.5" ry="2.5" style="stroke:#181818;stroke-width:0.5;" width="59" x="434.5" y="956.6484"/><text fill="#000000" font-family="sans-serif" font-size="14" lengthAdjust="spacing" textLength="45" x="441.5" y="976.6436">Vector</text><rect fill="#FFFFFF" height="873.2188" style="stroke:#181818;stroke-width:1.0;" width="10" x="66.5" y="75.4297"/><rect fill="#FFFFFF" height="773.7891" style="stroke:#181818;stroke-width:1.0;" width="10" x="71.5" y="158.8594"/><rect fill="#FFFFFF" height="383.3281" style="stroke:#181818;stroke-width:1.0;" width="10" x="76.5" y="549.3203"/><line style="stroke:#181818;stroke-width:1.0;" x1="71.5" x2="118.5" y1="62.4297" y2="62.4297"/><line style="stroke:#181818;stroke-width:1.0;" x1="118.5" x2="118.5" y1="62.4297" y2="75.4297"/><line style="stroke:#181818;stroke-width:1.0;" x1="77.5" x2="118.5" y1="75.4297" y2="75.4297"/><polygon fill="#181818" points="87.5,71.4297,77.5,75.4297,87.5,79.4297,83.5,75.4297" style="stroke:#181818;stroke-width:1.0;"/><text fill="#000000" font-family="sans-serif" font-size="13" lengthAdjust="spacing" textLength="193" x="83.5" y="57.3638">getSimilar(debut, fin, sensors)</text><polygon fill="#181818" points="339.5,105.5625,349.5,109.5625,339.5,113.5625,343.5,109.5625" style="stroke:#181818;stroke-width:1.0;"/><line style="stroke:#181818;stroke-width:1.0;" x1="76.5" x2="345.5" y1="109.5625" y2="109.5625"/><text fill="#000000" font-family="sans-serif" font-size="13" lengthAdjust="spacing" textLength="187" x="83.5" y="104.4966">new Similarity[sensors.size()]</text><rect fill="#E2E2F0" height="30.2969" rx="2.5" ry="2.5" style="stroke:#181818;stroke-width:0.5;" width="73" x="351.5" y="88.4297"/><text fill="#000000" font-family="sans-serif" font-size="14" lengthAdjust="spacing" textLength="59" x="358.5" y="108.4248">Similarity</text><line style="stroke:#181818;stroke-width:1.0;" x1="76.5" x2="123.5" y1="145.8594" y2="145.8594"/><line style="stroke:#181818;stroke-width:1.0;" x1="123.5" x2="123.5" y1="145.8594" y2="158.8594"/><line style="stroke:#181818;stroke-width:1.0;" x1="82.5" x2="123.5" y1="158.8594" y2="158.8594"/><polygon fill="#181818" points="92.5,154.8594,82.5,158.8594,92.5,162.8594,88.5,158.8594" style="stroke:#181818;stroke-width:1.0;"/><text fill="#000000" font-family="sans-serif" font-size="13" lengthAdjust="spacing" textLength="119" x="88.5" y="140.7935">getMeasurments()</text><path d="M30,178.8594 L107,178.8594 L107,185.9922 L97,195.9922 L30,195.9922 L30,178.8594 " fill="#EEEEEE" style="stroke:#000000;stroke-width:1.5;"/><rect fill="none" height="75.3984" style="stroke:#000000;stroke-width:1.5;" width="321.5" x="30" y="178.8594"/><text fill="#000000" font-family="sans-serif" font-size="13" font-weight="bold" lengthAdjust="spacing" textLength="32" x="45" y="191.9263">loop</text><text fill="#000000" font-family="sans-serif" font-size="11" font-weight="bold" lengthAdjust="spacing" textLength="186" x="122" y="191.0698">[through each measurement]</text><polygon fill="#181818" points="274.5,213.125,284.5,217.125,274.5,221.125,278.5,217.125" style="stroke:#181818;stroke-width:1.0;"/><line style="stroke:#181818;stroke-width:1.0;" x1="81.5" x2="280.5" y1="217.125" y2="217.125"/><text fill="#000000" font-family="sans-serif" font-size="13" lengthAdjust="spacing" textLength="100" x="88.5" y="212.0591">getAttributeID()</text><polygon fill="#181818" points="274.5,242.2578,284.5,246.2578,274.5,250.2578,278.5,246.2578" style="stroke:#181818;stroke-width:1.0;"/><line style="stroke:#181818;stroke-width:1.0;" x1="81.5" x2="280.5" y1="246.2578" y2="246.2578"/><text fill="#000000" font-family="sans-serif" font-size="13" lengthAdjust="spacing" textLength="67" x="88.5" y="241.1919">getValue()</text><line style="stroke:#181818;stroke-width:1.0;" x1="81.5" x2="123.5" y1="282.3906" y2="282.3906"/><line style="stroke:#181818;stroke-width:1.0;" x1="123.5" x2="123.5" y1="282.3906" y2="295.3906"/><line style="stroke:#181818;stroke-width:1.0;" x1="82.5" x2="123.5" y1="295.3906" y2="295.3906"/><polygon fill="#181818" points="92.5,291.3906,82.5,295.3906,92.5,299.3906,88.5,295.3906" style="stroke:#181818;stroke-width:1.0;"/><text fill="#000000" font-family="sans-serif" font-size="13" lengthAdjust="spacing" textLength="169" x="88.5" y="277.3247">calculate moyenneO3Capt</text><line style="stroke:#181818;stroke-width:1.0;" x1="81.5" x2="123.5" y1="324.5234" y2="324.5234"/><line style="stroke:#181818;stroke-width:1.0;" x1="123.5" x2="123.5" y1="324.5234" y2="337.5234"/><line style="stroke:#181818;stroke-width:1.0;" x1="82.5" x2="123.5" y1="337.5234" y2="337.5234"/><polygon fill="#181818" points="92.5,333.5234,82.5,337.5234,92.5,341.5234,88.5,337.5234" style="stroke:#181818;stroke-width:1.0;"/><text fill="#000000" font-family="sans-serif" font-size="13" lengthAdjust="spacing" textLength="178" x="88.5" y="319.4575">calculate moyenneSO2Capt</text><line style="stroke:#181818;stroke-width:1.0;" x1="81.5" x2="123.5" y1="366.6563" y2="366.6563"/><line style="stroke:#181818;stroke-width:1.0;" x1="123.5" x2="123.5" y1="366.6563" y2="379.6563"/><line style="stroke:#181818;stroke-width:1.0;" x1="82.5" x2="123.5" y1="379.6563" y2="379.6563"/><polygon fill="#181818" points="92.5,375.6563,82.5,379.6563,92.5,383.6563,88.5,379.6563" style="stroke:#181818;stroke-width:1.0;"/><text fill="#000000" font-family="sans-serif" font-size="13" lengthAdjust="spacing" textLength="179" x="88.5" y="361.5903">calculate moyenneNO2Capt</text><line style="stroke:#181818;stroke-width:1.0;" x1="81.5" x2="123.5" y1="408.7891" y2="408.7891"/><line style="stroke:#181818;stroke-width:1.0;" x1="123.5" x2="123.5" y1="408.7891" y2="421.7891"/><line style="stroke:#181818;stroke-width:1.0;" x1="82.5" x2="123.5" y1="421.7891" y2="421.7891"/><polygon fill="#181818" points="92.5,417.7891,82.5,421.7891,92.5,425.7891,88.5,421.7891" style="stroke:#181818;stroke-width:1.0;"/><text fill="#000000" font-family="sans-serif" font-size="13" lengthAdjust="spacing" textLength="186" x="88.5" y="403.7231">calculate moyennePM10Capt</text><path d="M10,436.7891 L87,436.7891 L87,443.9219 L77,453.9219 L10,453.9219 L10,436.7891 " fill="#EEEEEE" style="stroke:#000000;stroke-width:1.5;"/><rect fill="none" height="461.7266" style="stroke:#000000;stroke-width:1.5;" width="434.5" x="10" y="436.7891"/><text fill="#000000" font-family="sans-serif" font-size="13" font-weight="bold" lengthAdjust="spacing" textLength="32" x="25" y="449.856">loop</text><text fill="#000000" font-family="sans-serif" font-size="11" font-weight="bold" lengthAdjust="spacing" textLength="212" x="102" y="448.9995">[through each sensor in sensors]</text><line style="stroke:#181818;stroke-width:1.0;" x1="81.5" x2="123.5" y1="475.0547" y2="475.0547"/><line style="stroke:#181818;stroke-width:1.0;" x1="123.5" x2="123.5" y1="475.0547" y2="488.0547"/><line style="stroke:#181818;stroke-width:1.0;" x1="82.5" x2="123.5" y1="488.0547" y2="488.0547"/><polygon fill="#181818" points="92.5,484.0547,82.5,488.0547,92.5,492.0547,88.5,488.0547" style="stroke:#181818;stroke-width:1.0;"/><text fill="#000000" font-family="sans-serif" font-size="13" lengthAdjust="spacing" textLength="89" x="88.5" y="469.9888">getSensorID()</text><path d="M20,503.0547 L84,503.0547 L84,510.1875 L74,520.1875 L20,520.1875 L20,503.0547 " fill="#EEEEEE" style="stroke:#000000;stroke-width:1.5;"/><rect fill="none" height="388.4609" style="stroke:#000000;stroke-width:1.5;" width="414.5" x="20" y="503.0547"/><text fill="#000000" font-family="sans-serif" font-size="13" font-weight="bold" lengthAdjust="spacing" textLength="19" x="35" y="516.1216">alt</text><text fill="#000000" font-family="sans-serif" font-size="11" font-weight="bold" lengthAdjust="spacing" textLength="187" x="99" y="515.2651">[if SensorID != this SensorID]</text><line style="stroke:#181818;stroke-width:1.0;" x1="81.5" x2="128.5" y1="536.3203" y2="536.3203"/><line style="stroke:#181818;stroke-width:1.0;" x1="128.5" x2="128.5" y1="536.3203" y2="549.3203"/><line style="stroke:#181818;stroke-width:1.0;" x1="87.5" x2="128.5" y1="549.3203" y2="549.3203"/><polygon fill="#181818" points="97.5,545.3203,87.5,549.3203,97.5,553.3203,93.5,549.3203" style="stroke:#181818;stroke-width:1.0;"/><text fill="#000000" font-family="sans-serif" font-size="13" lengthAdjust="spacing" textLength="119" x="93.5" y="531.2544">getMeasurments()</text><path d="M30,569.3203 L107,569.3203 L107,576.4531 L97,586.4531 L30,586.4531 L30,569.3203 " fill="#EEEEEE" style="stroke:#000000;stroke-width:1.5;"/><rect fill="none" height="75.3984" style="stroke:#000000;stroke-width:1.5;" width="385" x="30" y="569.3203"/><text fill="#000000" font-family="sans-serif" font-size="13" font-weight="bold" lengthAdjust="spacing" textLength="32" x="45" y="582.3872">loop</text><text fill="#000000" font-family="sans-serif" font-size="11" font-weight="bold" lengthAdjust="spacing" textLength="288" x="122" y="581.5308">[through each measurement of other sensor]</text><polygon fill="#181818" points="274.5,603.5859,284.5,607.5859,274.5,611.5859,278.5,607.5859" style="stroke:#181818;stroke-width:1.0;"/><line style="stroke:#181818;stroke-width:1.0;" x1="86.5" x2="280.5" y1="607.5859" y2="607.5859"/><text fill="#000000" font-family="sans-serif" font-size="13" lengthAdjust="spacing" textLength="100" x="93.5" y="602.52">getAttributeID()</text><polygon fill="#181818" points="274.5,632.7188,284.5,636.7188,274.5,640.7188,278.5,636.7188" style="stroke:#181818;stroke-width:1.0;"/><line style="stroke:#181818;stroke-width:1.0;" x1="86.5" x2="280.5" y1="636.7188" y2="636.7188"/><text fill="#000000" font-family="sans-serif" font-size="13" lengthAdjust="spacing" textLength="67" x="93.5" y="631.6528">getValue()</text><line style="stroke:#181818;stroke-width:1.0;" x1="86.5" x2="128.5" y1="672.8516" y2="672.8516"/><line style="stroke:#181818;stroke-width:1.0;" x1="128.5" x2="128.5" y1="672.8516" y2="685.8516"/><line style="stroke:#181818;stroke-width:1.0;" x1="87.5" x2="128.5" y1="685.8516" y2="685.8516"/><polygon fill="#181818" points="97.5,681.8516,87.5,685.8516,97.5,689.8516,93.5,685.8516" style="stroke:#181818;stroke-width:1.0;"/><text fill="#000000" font-family="sans-serif" font-size="13" lengthAdjust="spacing" textLength="155" x="93.5" y="667.7856">calculate moyenneO3_S</text><line style="stroke:#181818;stroke-width:1.0;" x1="86.5" x2="128.5" y1="714.9844" y2="714.9844"/><line style="stroke:#181818;stroke-width:1.0;" x1="128.5" x2="128.5" y1="714.9844" y2="727.9844"/><line style="stroke:#181818;stroke-width:1.0;" x1="87.5" x2="128.5" y1="727.9844" y2="727.9844"/><polygon fill="#181818" points="97.5,723.9844,87.5,727.9844,97.5,731.9844,93.5,727.9844" style="stroke:#181818;stroke-width:1.0;"/><text fill="#000000" font-family="sans-serif" font-size="13" lengthAdjust="spacing" textLength="164" x="93.5" y="709.9185">calculate moyenneSO2_S</text><line style="stroke:#181818;stroke-width:1.0;" x1="86.5" x2="128.5" y1="757.1172" y2="757.1172"/><line style="stroke:#181818;stroke-width:1.0;" x1="128.5" x2="128.5" y1="757.1172" y2="770.1172"/><line style="stroke:#181818;stroke-width:1.0;" x1="87.5" x2="128.5" y1="770.1172" y2="770.1172"/><polygon fill="#181818" points="97.5,766.1172,87.5,770.1172,97.5,774.1172,93.5,770.1172" style="stroke:#181818;stroke-width:1.0;"/><text fill="#000000" font-family="sans-serif" font-size="13" lengthAdjust="spacing" textLength="165" x="93.5" y="752.0513">calculate moyenneNO2_S</text><line style="stroke:#181818;stroke-width:1.0;" x1="86.5" x2="128.5" y1="799.25" y2="799.25"/><line style="stroke:#181818;stroke-width:1.0;" x1="128.5" x2="128.5" y1="799.25" y2="812.25"/><line style="stroke:#181818;stroke-width:1.0;" x1="87.5" x2="128.5" y1="812.25" y2="812.25"/><polygon fill="#181818" points="97.5,808.25,87.5,812.25,97.5,816.25,93.5,812.25" style="stroke:#181818;stroke-width:1.0;"/><text fill="#000000" font-family="sans-serif" font-size="13" lengthAdjust="spacing" textLength="172" x="93.5" y="794.1841">calculate moyennePM10_S</text><line style="stroke:#181818;stroke-width:1.0;" x1="86.5" x2="128.5" y1="841.3828" y2="841.3828"/><line style="stroke:#181818;stroke-width:1.0;" x1="128.5" x2="128.5" y1="841.3828" y2="854.3828"/><line style="stroke:#181818;stroke-width:1.0;" x1="87.5" x2="128.5" y1="854.3828" y2="854.3828"/><polygon fill="#181818" points="97.5,850.3828,87.5,854.3828,97.5,858.3828,93.5,854.3828" style="stroke:#181818;stroke-width:1.0;"/><text fill="#000000" font-family="sans-serif" font-size="13" lengthAdjust="spacing" textLength="138" x="93.5" y="836.3169">calculate scoreMoyen</text><polygon fill="#181818" points="376,879.5156,386,883.5156,376,887.5156,380,883.5156" style="stroke:#181818;stroke-width:1.0;"/><line style="stroke:#181818;stroke-width:1.0;" x1="86.5" x2="382" y1="883.5156" y2="883.5156"/><text fill="#000000" font-family="sans-serif" font-size="13" lengthAdjust="spacing" textLength="132" x="93.5" y="878.4497">set captID and score</text><line style="stroke:#181818;stroke-width:1.0;stroke-dasharray:2.0,2.0;" x1="86.5" x2="128.5" y1="931.6484" y2="931.6484"/><line style="stroke:#181818;stroke-width:1.0;stroke-dasharray:2.0,2.0;" x1="128.5" x2="128.5" y1="931.6484" y2="944.6484"/><line style="stroke:#181818;stroke-width:1.0;stroke-dasharray:2.0,2.0;" x1="81.5" x2="128.5" y1="944.6484" y2="944.6484"/><polygon fill="#181818" points="91.5,940.6484,81.5,944.6484,91.5,948.6484,87.5,944.6484" style="stroke:#181818;stroke-width:1.0;"/><text fill="#000000" font-family="sans-serif" font-size="13" lengthAdjust="spacing" textLength="23" x="93.5" y="926.5825">sim</text><!--SRC=[bLFBIiD05DtFLrntBLJniHCKH3SksWg1RaHadDms5vAPC7EZrAztyfYOrBGcWK1oSiwP-pZ9fMLIb4lD4A5snegy0orHki9YXffxU4GPfT8Ixtlm1XLx1r4xmVbzumcti4DkHBCOFmfUm9Rq0bprtSs5L4oVaZ5K8PJ5wlNtf8vh2tfdZLyTuBLnl73qZRFvsx5YwixAnjpix-cfCJbmOasnIm2bIY3hJ0ByzUlQcL5j_S1ioRU8pq_U-X_oHgQ5hrEWZeSgLJ9LHLfMbfazQethcqUPyoXgjBuUpLrDuBuihouhyi2Owka3wR3PW_vxUQYUso79b86s450uk_FMv5gW8XrtwoyqS0yN6_2J2mQp1SC9sgQ9LZLvyID48G21MWRXHAS3WNYF9WbyB2OgLfCLPKJ6Ifmo5fUbReZV_TCTijVbxCCXTLmBHPXPUGkBN5YVFSf4Z0Ux_m40]--></g></svg>