<?xml version="1.0" encoding="us-ascii" standalone="no"?><svg xmlns="http://www.w3.org/2000/svg" xmlns:xlink="http://www.w3.org/1999/xlink" contentStyleType="text/css" height="956px" preserveAspectRatio="none" style="width:506px;height:956px;background:#FFFFFF;" version="1.1" viewBox="0 0 506 956" width="506px" zoomAndPan="magnify"><defs/><g><rect fill="#FFFFFF" height="820.5" style="stroke:#181818;stroke-width:1.0;" width="10" x="56.5" y="75.4297"/><rect fill="none" height="301.0625" style="stroke:#000000;stroke-width:1.5;" width="216" x="10" y="179.6953"/><rect fill="none" height="101.3984" style="stroke:#000000;stroke-width:1.5;" width="196" x="20" y="372.3594"/><rect fill="none" height="267.4766" style="stroke:#000000;stroke-width:1.5;" width="490.5" x="10" y="536.0547"/><rect fill="none" height="178.0781" style="stroke:#000000;stroke-width:1.5;" width="470.5" x="20" y="618.4531"/><line style="stroke:#181818;stroke-width:0.5;stroke-dasharray:5.0,5.0;" x1="61" x2="61" y1="36.2969" y2="920.9297"/><line style="stroke:#181818;stroke-width:0.5;stroke-dasharray:5.0,5.0;" x1="298.5" x2="298.5" y1="36.2969" y2="920.9297"/><line style="stroke:#181818;stroke-width:0.5;stroke-dasharray:5.0,5.0;" x1="387.5" x2="387.5" y1="518.4063" y2="920.9297"/><line style="stroke:#181818;stroke-width:0.5;stroke-dasharray:5.0,5.0;" x1="450.5" x2="450.5" y1="36.2969" y2="920.9297"/><rect fill="#E2E2F0" height="30.2969" rx="2.5" ry="2.5" style="stroke:#181818;stroke-width:0.5;" width="63" x="30" y="5"/><text fill="#000000" font-family="sans-serif" font-size="14" lengthAdjust="spacing" textLength="49" x="37" y="24.9951">Sensor</text><rect fill="#E2E2F0" height="30.2969" rx="2.5" ry="2.5" style="stroke:#181818;stroke-width:0.5;" width="63" x="30" y="919.9297"/><text fill="#000000" font-family="sans-serif" font-size="14" lengthAdjust="spacing" textLength="49" x="37" y="939.9248">Sensor</text><rect fill="#E2E2F0" height="30.2969" rx="2.5" ry="2.5" style="stroke:#181818;stroke-width:0.5;" width="110" x="243.5" y="5"/><text fill="#000000" font-family="sans-serif" font-size="14" lengthAdjust="spacing" textLength="96" x="250.5" y="24.9951">Measurement</text><rect fill="#E2E2F0" height="30.2969" rx="2.5" ry="2.5" style="stroke:#181818;stroke-width:0.5;" width="110" x="243.5" y="919.9297"/><text fill="#000000" font-family="sans-serif" font-size="14" lengthAdjust="spacing" textLength="96" x="250.5" y="939.9248">Measurement</text><rect fill="#E2E2F0" height="30.2969" rx="2.5" ry="2.5" style="stroke:#181818;stroke-width:0.5;" width="48" x="363.5" y="919.9297"/><text fill="#000000" font-family="sans-serif" font-size="14" lengthAdjust="spacing" textLength="34" x="370.5" y="939.9248">Quali</text><rect fill="#E2E2F0" height="30.2969" rx="2.5" ry="2.5" style="stroke:#181818;stroke-width:0.5;" width="59" x="421.5" y="5"/><text fill="#000000" font-family="sans-serif" font-size="14" lengthAdjust="spacing" textLength="45" x="428.5" y="24.9951">Vector</text><rect fill="#E2E2F0" height="30.2969" rx="2.5" ry="2.5" style="stroke:#181818;stroke-width:0.5;" width="59" x="421.5" y="919.9297"/><text fill="#000000" font-family="sans-serif" font-size="14" lengthAdjust="spacing" textLength="45" x="428.5" y="939.9248">Vector</text><rect fill="#FFFFFF" height="820.5" style="stroke:#181818;stroke-width:1.0;" width="10" x="56.5" y="75.4297"/><line style="stroke:#181818;stroke-width:1.0;" x1="61.5" x2="108.5" y1="62.4297" y2="62.4297"/><line style="stroke:#181818;stroke-width:1.0;" x1="108.5" x2="108.5" y1="62.4297" y2="75.4297"/><line style="stroke:#181818;stroke-width:1.0;" x1="67.5" x2="108.5" y1="75.4297" y2="75.4297"/><polygon fill="#181818" points="77.5,71.4297,67.5,75.4297,77.5,79.4297,73.5,75.4297" style="stroke:#181818;stroke-width:1.0;"/><text fill="#000000" font-family="sans-serif" font-size="13" lengthAdjust="spacing" textLength="223" x="73.5" y="57.3638">calculateQuality(longi, lat, sensors)</text><line style="stroke:#181818;stroke-width:1.0;" x1="66.5" x2="108.5" y1="109.5625" y2="109.5625"/><line style="stroke:#181818;stroke-width:1.0;" x1="108.5" x2="108.5" y1="109.5625" y2="122.5625"/><line style="stroke:#181818;stroke-width:1.0;" x1="67.5" x2="108.5" y1="122.5625" y2="122.5625"/><polygon fill="#181818" points="77.5,118.5625,67.5,122.5625,77.5,126.5625,73.5,122.5625" style="stroke:#181818;stroke-width:1.0;"/><text fill="#000000" font-family="sans-serif" font-size="13" lengthAdjust="spacing" textLength="104" x="73.5" y="104.4966">initialize minDist</text><line style="stroke:#181818;stroke-width:1.0;" x1="66.5" x2="108.5" y1="151.6953" y2="151.6953"/><line style="stroke:#181818;stroke-width:1.0;" x1="108.5" x2="108.5" y1="151.6953" y2="164.6953"/><line style="stroke:#181818;stroke-width:1.0;" x1="67.5" x2="108.5" y1="164.6953" y2="164.6953"/><polygon fill="#181818" points="77.5,160.6953,67.5,164.6953,77.5,168.6953,73.5,164.6953" style="stroke:#181818;stroke-width:1.0;"/><text fill="#000000" font-family="sans-serif" font-size="13" lengthAdjust="spacing" textLength="120" x="73.5" y="146.6294">initialize sensorMin</text><path d="M10,179.6953 L87,179.6953 L87,186.8281 L77,196.8281 L10,196.8281 L10,179.6953 " fill="#EEEEEE" style="stroke:#000000;stroke-width:1.5;"/><rect fill="none" height="301.0625" style="stroke:#000000;stroke-width:1.5;" width="216" x="10" y="179.6953"/><text fill="#000000" font-family="sans-serif" font-size="13" font-weight="bold" lengthAdjust="spacing" textLength="32" x="25" y="192.7622">loop</text><text fill="#000000" font-family="sans-serif" font-size="11" font-weight="bold" lengthAdjust="spacing" textLength="114" x="102" y="191.9058">[through sensors]</text><line style="stroke:#181818;stroke-width:1.0;" x1="66.5" x2="108.5" y1="217.9609" y2="217.9609"/><line style="stroke:#181818;stroke-width:1.0;" x1="108.5" x2="108.5" y1="217.9609" y2="230.9609"/><line style="stroke:#181818;stroke-width:1.0;" x1="67.5" x2="108.5" y1="230.9609" y2="230.9609"/><polygon fill="#181818" points="77.5,226.9609,67.5,230.9609,77.5,234.9609,73.5,230.9609" style="stroke:#181818;stroke-width:1.0;"/><text fill="#000000" font-family="sans-serif" font-size="13" lengthAdjust="spacing" textLength="94" x="73.5" y="212.895">getLongitude()</text><line style="stroke:#181818;stroke-width:1.0;" x1="66.5" x2="108.5" y1="260.0938" y2="260.0938"/><line style="stroke:#181818;stroke-width:1.0;" x1="108.5" x2="108.5" y1="260.0938" y2="273.0938"/><line style="stroke:#181818;stroke-width:1.0;" x1="67.5" x2="108.5" y1="273.0938" y2="273.0938"/><polygon fill="#181818" points="77.5,269.0938,67.5,273.0938,77.5,277.0938,73.5,273.0938" style="stroke:#181818;stroke-width:1.0;"/><text fill="#000000" font-family="sans-serif" font-size="13" lengthAdjust="spacing" textLength="83" x="73.5" y="255.0278">getLatitude()</text><line style="stroke:#181818;stroke-width:1.0;" x1="66.5" x2="108.5" y1="302.2266" y2="302.2266"/><line style="stroke:#181818;stroke-width:1.0;" x1="108.5" x2="108.5" y1="302.2266" y2="315.2266"/><line style="stroke:#181818;stroke-width:1.0;" x1="67.5" x2="108.5" y1="315.2266" y2="315.2266"/><polygon fill="#181818" points="77.5,311.2266,67.5,315.2266,77.5,319.2266,73.5,315.2266" style="stroke:#181818;stroke-width:1.0;"/><text fill="#000000" font-family="sans-serif" font-size="13" lengthAdjust="spacing" textLength="83" x="73.5" y="297.1606">dist_coords()</text><line style="stroke:#181818;stroke-width:1.0;" x1="66.5" x2="108.5" y1="344.3594" y2="344.3594"/><line style="stroke:#181818;stroke-width:1.0;" x1="108.5" x2="108.5" y1="344.3594" y2="357.3594"/><line style="stroke:#181818;stroke-width:1.0;" x1="67.5" x2="108.5" y1="357.3594" y2="357.3594"/><polygon fill="#181818" points="77.5,353.3594,67.5,357.3594,77.5,361.3594,73.5,357.3594" style="stroke:#181818;stroke-width:1.0;"/><text fill="#000000" font-family="sans-serif" font-size="13" lengthAdjust="spacing" textLength="122" x="73.5" y="339.2935">compare distances</text><path d="M20,372.3594 L84,372.3594 L84,379.4922 L74,389.4922 L20,389.4922 L20,372.3594 " fill="#EEEEEE" style="stroke:#000000;stroke-width:1.5;"/><rect fill="none" height="101.3984" style="stroke:#000000;stroke-width:1.5;" width="196" x="20" y="372.3594"/><text fill="#000000" font-family="sans-serif" font-size="13" font-weight="bold" lengthAdjust="spacing" textLength="19" x="35" y="385.4263">alt</text><text fill="#000000" font-family="sans-serif" font-size="11" font-weight="bold" lengthAdjust="spacing" textLength="112" x="99" y="384.5698">[if dist &lt; minDist]</text><line style="stroke:#181818;stroke-width:1.0;" x1="66.5" x2="108.5" y1="410.625" y2="410.625"/><line style="stroke:#181818;stroke-width:1.0;" x1="108.5" x2="108.5" y1="410.625" y2="423.625"/><line style="stroke:#181818;stroke-width:1.0;" x1="67.5" x2="108.5" y1="423.625" y2="423.625"/><polygon fill="#181818" points="77.5,419.625,67.5,423.625,77.5,427.625,73.5,423.625" style="stroke:#181818;stroke-width:1.0;"/><text fill="#000000" font-family="sans-serif" font-size="13" lengthAdjust="spacing" textLength="98" x="73.5" y="405.5591">update minDist</text><line style="stroke:#181818;stroke-width:1.0;" x1="66.5" x2="108.5" y1="452.7578" y2="452.7578"/><line style="stroke:#181818;stroke-width:1.0;" x1="108.5" x2="108.5" y1="452.7578" y2="465.7578"/><line style="stroke:#181818;stroke-width:1.0;" x1="67.5" x2="108.5" y1="465.7578" y2="465.7578"/><polygon fill="#181818" points="77.5,461.7578,67.5,465.7578,77.5,469.7578,73.5,465.7578" style="stroke:#181818;stroke-width:1.0;"/><text fill="#000000" font-family="sans-serif" font-size="13" lengthAdjust="spacing" textLength="114" x="73.5" y="447.6919">update sensorMin</text><polygon fill="#181818" points="351.5,504.8906,361.5,508.8906,351.5,512.8906,355.5,508.8906" style="stroke:#181818;stroke-width:1.0;"/><line style="stroke:#181818;stroke-width:1.0;" x1="66.5" x2="357.5" y1="508.8906" y2="508.8906"/><text fill="#000000" font-family="sans-serif" font-size="13" lengthAdjust="spacing" textLength="120" x="73.5" y="503.8247">create Quali object</text><rect fill="#E2E2F0" height="30.2969" rx="2.5" ry="2.5" style="stroke:#181818;stroke-width:0.5;" width="48" x="363.5" y="487.7578"/><text fill="#000000" font-family="sans-serif" font-size="14" lengthAdjust="spacing" textLength="34" x="370.5" y="507.7529">Quali</text><path d="M10,536.0547 L87,536.0547 L87,543.1875 L77,553.1875 L10,553.1875 L10,536.0547 " fill="#EEEEEE" style="stroke:#000000;stroke-width:1.5;"/><rect fill="none" height="267.4766" style="stroke:#000000;stroke-width:1.5;" width="490.5" x="10" y="536.0547"/><text fill="#000000" font-family="sans-serif" font-size="13" font-weight="bold" lengthAdjust="spacing" textLength="32" x="25" y="549.1216">loop</text><text fill="#000000" font-family="sans-serif" font-size="11" font-weight="bold" lengthAdjust="spacing" textLength="245" x="102" y="548.2651">[through measurements of sensorMin]</text><polygon fill="#181818" points="286.5,570.3203,296.5,574.3203,286.5,578.3203,290.5,574.3203" style="stroke:#181818;stroke-width:1.0;"/><line style="stroke:#181818;stroke-width:1.0;" x1="66.5" x2="292.5" y1="574.3203" y2="574.3203"/><text fill="#000000" font-family="sans-serif" font-size="13" lengthAdjust="spacing" textLength="100" x="73.5" y="569.2544">getAttributeID()</text><polygon fill="#181818" points="286.5,599.4531,296.5,603.4531,286.5,607.4531,290.5,603.4531" style="stroke:#181818;stroke-width:1.0;"/><line style="stroke:#181818;stroke-width:1.0;" x1="66.5" x2="292.5" y1="603.4531" y2="603.4531"/><text fill="#000000" font-family="sans-serif" font-size="13" lengthAdjust="spacing" textLength="67" x="73.5" y="598.3872">getValue()</text><path d="M20,618.4531 L84,618.4531 L84,625.5859 L74,635.5859 L20,635.5859 L20,618.4531 " fill="#EEEEEE" style="stroke:#000000;stroke-width:1.5;"/><rect fill="none" height="178.0781" style="stroke:#000000;stroke-width:1.5;" width="470.5" x="20" y="618.4531"/><text fill="#000000" font-family="sans-serif" font-size="13" font-weight="bold" lengthAdjust="spacing" textLength="19" x="35" y="631.52">alt</text><text fill="#000000" font-family="sans-serif" font-size="11" font-weight="bold" lengthAdjust="spacing" textLength="146" x="99" y="630.6636">[if AttributeID == "03"]</text><polygon fill="#181818" points="439,652.7188,449,656.7188,439,660.7188,443,656.7188" style="stroke:#181818;stroke-width:1.0;"/><line style="stroke:#181818;stroke-width:1.0;" x1="66.5" x2="445" y1="656.7188" y2="656.7188"/><text fill="#000000" font-family="sans-serif" font-size="13" lengthAdjust="spacing" textLength="162" x="73.5" y="651.6528">push back to moyenneo3</text><line style="stroke:#000000;stroke-width:1.0;stroke-dasharray:2.0,2.0;" x1="20" x2="490.5" y1="665.7188" y2="665.7188"/><text fill="#000000" font-family="sans-serif" font-size="11" font-weight="bold" lengthAdjust="spacing" textLength="156" x="25" y="675.9292">[if AttributeID == "SO2"]</text><polygon fill="#181818" points="439,696.6563,449,700.6563,439,704.6563,443,700.6563" style="stroke:#181818;stroke-width:1.0;"/><line style="stroke:#181818;stroke-width:1.0;" x1="66.5" x2="445" y1="700.6563" y2="700.6563"/><text fill="#000000" font-family="sans-serif" font-size="13" lengthAdjust="spacing" textLength="169" x="73.5" y="695.5903">push back to moyenneso2</text><line style="stroke:#000000;stroke-width:1.0;stroke-dasharray:2.0,2.0;" x1="20" x2="490.5" y1="709.6563" y2="709.6563"/><text fill="#000000" font-family="sans-serif" font-size="11" font-weight="bold" lengthAdjust="spacing" textLength="157" x="25" y="719.8667">[if AttributeID == "NO2"]</text><polygon fill="#181818" points="439,740.5938,449,744.5938,439,748.5938,443,744.5938" style="stroke:#181818;stroke-width:1.0;"/><line style="stroke:#181818;stroke-width:1.0;" x1="66.5" x2="445" y1="744.5938" y2="744.5938"/><text fill="#000000" font-family="sans-serif" font-size="13" lengthAdjust="spacing" textLength="170" x="73.5" y="739.5278">push back to moyenneno2</text><line style="stroke:#000000;stroke-width:1.0;stroke-dasharray:2.0,2.0;" x1="20" x2="490.5" y1="753.5938" y2="753.5938"/><text fill="#000000" font-family="sans-serif" font-size="11" font-weight="bold" lengthAdjust="spacing" textLength="165" x="25" y="763.8042">[if AttributeID == "PM10"]</text><polygon fill="#181818" points="439,784.5313,449,788.5313,439,792.5313,443,788.5313" style="stroke:#181818;stroke-width:1.0;"/><line style="stroke:#181818;stroke-width:1.0;" x1="66.5" x2="445" y1="788.5313" y2="788.5313"/><text fill="#000000" font-family="sans-serif" font-size="13" lengthAdjust="spacing" textLength="183" x="73.5" y="783.4653">push back to moyennepm10</text><polygon fill="#181818" points="375.5,827.6641,385.5,831.6641,375.5,835.6641,379.5,831.6641" style="stroke:#181818;stroke-width:1.0;"/><line style="stroke:#181818;stroke-width:1.0;" x1="66.5" x2="381.5" y1="831.6641" y2="831.6641"/><text fill="#000000" font-family="sans-serif" font-size="13" lengthAdjust="spacing" textLength="158" x="73.5" y="826.5981">calculate average values</text><polygon fill="#181818" points="375.5,856.7969,385.5,860.7969,375.5,864.7969,379.5,860.7969" style="stroke:#181818;stroke-width:1.0;"/><line style="stroke:#181818;stroke-width:1.0;" x1="66.5" x2="381.5" y1="860.7969" y2="860.7969"/><text fill="#000000" font-family="sans-serif" font-size="13" lengthAdjust="spacing" textLength="159" x="73.5" y="855.731">set values in Quali object</text><line style="stroke:#181818;stroke-width:1.0;stroke-dasharray:2.0,2.0;" x1="66.5" x2="108.5" y1="894.9297" y2="894.9297"/><line style="stroke:#181818;stroke-width:1.0;stroke-dasharray:2.0,2.0;" x1="108.5" x2="108.5" y1="894.9297" y2="907.9297"/><line style="stroke:#181818;stroke-width:1.0;stroke-dasharray:2.0,2.0;" x1="61.5" x2="108.5" y1="907.9297" y2="907.9297"/><polygon fill="#181818" points="71.5,903.9297,61.5,907.9297,71.5,911.9297,67.5,907.9297" style="stroke:#181818;stroke-width:1.0;"/><text fill="#000000" font-family="sans-serif" font-size="13" lengthAdjust="spacing" textLength="8" x="73.5" y="889.8638">q</text><!--SRC=[dPDDQm8n48Rl-HM39mKBVjnABHIy56e_4BoMc1tNjDbacqm4- -kR_UhkwggrWJtiv9qdatScARSaXKov9bYYTiQoj15Q87VUOeAQMl4tpvLiHLOeA2Ip0W8tzoKERa5m9RpYX7aMxVlAw5WE8OI6u7AL6p0kIEw2g2gZYoIr91aOtmY9r7Ffw8Age2-aPamPam9jhV7njZgLGLWTX1ZfAQkHV8JzmJaLfmkYA1JvBeonaJij4YO9Nc8kvbfWKHXN17AJ1-7kzy9GhWwCJwFCmByhQtio7Ug8PHyJ5hFTeibrTlwVLTlO1hF-29q_i3UfnyQ1sHoSKnCRurNu-K1avTeJFiwFt3eIhxZobVEbLurycCsWDvhsEcmePZL0Kk-siERY4yX0OlQeDPffOOPos4LSlaokHZepESjy_WTJNs2-BiQZgw5fCXwrHw6Z-zLh1hv3osE4NTO7ro5rIELcU9FjUR58tchuOX4UFFmV]--></g></svg>