<svg xmlns="http://www.w3.org/2000/svg" xmlns:xlink="http://www.w3.org/1999/xlink" contentStyleType="text/css" height="773px" preserveAspectRatio="none" style="width:697px;height:773px;background:#FFFFFF;" version="1.1" viewBox="0 0 697 773" width="697px" zoomAndPan="magnify"><defs/><g><rect fill="#FFFFFF" height="29.1328" style="stroke:#181818;stroke-width:1.0;" width="10" x="119" y="374.625"/><rect fill="#FFFFFF" height="562.2578" style="stroke:#181818;stroke-width:1.0;" width="10" x="271" y="112.4297"/><rect fill="#FFFFFF" height="124.3984" style="stroke:#181818;stroke-width:1.0;" width="10" x="276" y="465.0234"/><rect fill="#FFFFFF" height="29.1328" style="stroke:#181818;stroke-width:1.0;" width="10" x="652" y="141.5625"/><rect fill="#FFFFFF" height="29.1328" style="stroke:#181818;stroke-width:1.0;" width="10" x="652" y="199.8281"/><rect fill="#FFFFFF" height="29.1328" style="stroke:#181818;stroke-width:1.0;" width="10" x="652" y="258.0938"/><rect fill="#FFFFFF" height="29.1328" style="stroke:#181818;stroke-width:1.0;" width="10" x="652" y="316.3594"/><rect fill="none" height="185.6641" style="stroke:#000000;stroke-width:1.5;" width="422.5" x="234.5" y="418.7578"/><line style="stroke:#181818;stroke-width:0.5;stroke-dasharray:5.0,5.0;" x1="27" x2="27" y1="81.2969" y2="692.6875"/><line style="stroke:#181818;stroke-width:0.5;stroke-dasharray:5.0,5.0;" x1="124" x2="124" y1="81.2969" y2="692.6875"/><line style="stroke:#181818;stroke-width:0.5;stroke-dasharray:5.0,5.0;" x1="275.5" x2="275.5" y1="81.2969" y2="692.6875"/><line style="stroke:#181818;stroke-width:0.5;stroke-dasharray:5.0,5.0;" x1="656.5" x2="656.5" y1="81.2969" y2="692.6875"/><text fill="#000000" font-family="sans-serif" font-size="14" lengthAdjust="spacing" textLength="38" x="5" y="77.9951">Caller</text><ellipse cx="27" cy="13.5" fill="#E2E2F0" rx="8" ry="8" style="stroke:#181818;stroke-width:0.5;"/><path d="M27,21.5 L27,48.5 M14,29.5 L40,29.5 M27,48.5 L14,63.5 M27,48.5 L40,63.5 " fill="none" style="stroke:#181818;stroke-width:0.5;"/><text fill="#000000" font-family="sans-serif" font-size="14" lengthAdjust="spacing" textLength="38" x="5" y="704.6826">Caller</text><ellipse cx="27" cy="716.4844" fill="#E2E2F0" rx="8" ry="8" style="stroke:#181818;stroke-width:0.5;"/><path d="M27,724.4844 L27,751.4844 M14,732.4844 L40,732.4844 M27,751.4844 L14,766.4844 M27,751.4844 L40,766.4844 " fill="none" style="stroke:#181818;stroke-width:0.5;"/><rect fill="#E2E2F0" height="30.2969" rx="2.5" ry="2.5" style="stroke:#181818;stroke-width:0.5;" width="130" x="59" y="50"/><text fill="#000000" font-family="sans-serif" font-size="14" lengthAdjust="spacing" textLength="116" x="66" y="69.9951">SensorContainer</text><rect fill="#E2E2F0" height="30.2969" rx="2.5" ry="2.5" style="stroke:#181818;stroke-width:0.5;" width="130" x="59" y="691.6875"/><text fill="#000000" font-family="sans-serif" font-size="14" lengthAdjust="spacing" textLength="116" x="66" y="711.6826">SensorContainer</text><rect fill="#E2E2F0" height="30.2969" rx="2.5" ry="2.5" style="stroke:#181818;stroke-width:0.5;" width="63" x="244.5" y="50"/><text fill="#000000" font-family="sans-serif" font-size="14" lengthAdjust="spacing" textLength="49" x="251.5" y="69.9951">Sensor</text><rect fill="#E2E2F0" height="30.2969" rx="2.5" ry="2.5" style="stroke:#181818;stroke-width:0.5;" width="63" x="244.5" y="691.6875"/><text fill="#000000" font-family="sans-serif" font-size="14" lengthAdjust="spacing" textLength="49" x="251.5" y="711.6826">Sensor</text><rect fill="#E2E2F0" height="30.2969" rx="2.5" ry="2.5" style="stroke:#181818;stroke-width:0.5;" width="69" x="622.5" y="50"/><text fill="#000000" font-family="sans-serif" font-size="14" lengthAdjust="spacing" textLength="55" x="629.5" y="69.9951">average</text><rect fill="#E2E2F0" height="30.2969" rx="2.5" ry="2.5" style="stroke:#181818;stroke-width:0.5;" width="69" x="622.5" y="691.6875"/><text fill="#000000" font-family="sans-serif" font-size="14" lengthAdjust="spacing" textLength="55" x="629.5" y="711.6826">average</text><rect fill="#FFFFFF" height="29.1328" style="stroke:#181818;stroke-width:1.0;" width="10" x="119" y="374.625"/><rect fill="#FFFFFF" height="562.2578" style="stroke:#181818;stroke-width:1.0;" width="10" x="271" y="112.4297"/><rect fill="#FFFFFF" height="124.3984" style="stroke:#181818;stroke-width:1.0;" width="10" x="276" y="465.0234"/><rect fill="#FFFFFF" height="29.1328" style="stroke:#181818;stroke-width:1.0;" width="10" x="652" y="141.5625"/><rect fill="#FFFFFF" height="29.1328" style="stroke:#181818;stroke-width:1.0;" width="10" x="652" y="199.8281"/><rect fill="#FFFFFF" height="29.1328" style="stroke:#181818;stroke-width:1.0;" width="10" x="652" y="258.0938"/><rect fill="#FFFFFF" height="29.1328" style="stroke:#181818;stroke-width:1.0;" width="10" x="652" y="316.3594"/><polygon fill="#181818" points="259,108.4297,269,112.4297,259,116.4297,263,112.4297" style="stroke:#181818;stroke-width:1.0;"/><line style="stroke:#181818;stroke-width:1.0;" x1="27" x2="265" y1="112.4297" y2="112.4297"/><text fill="#000000" font-family="sans-serif" font-size="13" lengthAdjust="spacing" textLength="182" x="34" y="107.3638">getSimilar(SensorContainer)</text><polygon fill="#181818" points="640,137.5625,650,141.5625,640,145.5625,644,141.5625" style="stroke:#181818;stroke-width:1.0;"/><line style="stroke:#181818;stroke-width:1.0;" x1="281" x2="646" y1="141.5625" y2="141.5625"/><text fill="#000000" font-family="sans-serif" font-size="13" lengthAdjust="spacing" textLength="177" x="288" y="136.4966">average(measurments_O3)</text><polygon fill="#181818" points="292,166.6953,282,170.6953,292,174.6953,288,170.6953" style="stroke:#181818;stroke-width:1.0;"/><line style="stroke:#181818;stroke-width:1.0;stroke-dasharray:2.0,2.0;" x1="286" x2="656" y1="170.6953" y2="170.6953"/><text fill="#000000" font-family="sans-serif" font-size="13" lengthAdjust="spacing" textLength="70" x="298" y="165.6294">averageO3</text><polygon fill="#181818" points="640,195.8281,650,199.8281,640,203.8281,644,199.8281" style="stroke:#181818;stroke-width:1.0;"/><line style="stroke:#181818;stroke-width:1.0;" x1="281" x2="646" y1="199.8281" y2="199.8281"/><text fill="#000000" font-family="sans-serif" font-size="13" lengthAdjust="spacing" textLength="186" x="288" y="194.7622">average(measurments_SO2)</text><polygon fill="#181818" points="292,224.9609,282,228.9609,292,232.9609,288,228.9609" style="stroke:#181818;stroke-width:1.0;"/><line style="stroke:#181818;stroke-width:1.0;stroke-dasharray:2.0,2.0;" x1="286" x2="656" y1="228.9609" y2="228.9609"/><text fill="#000000" font-family="sans-serif" font-size="13" lengthAdjust="spacing" textLength="79" x="298" y="223.895">averageSO2</text><polygon fill="#181818" points="640,254.0938,650,258.0938,640,262.0938,644,258.0938" style="stroke:#181818;stroke-width:1.0;"/><line style="stroke:#181818;stroke-width:1.0;" x1="281" x2="646" y1="258.0938" y2="258.0938"/><text fill="#000000" font-family="sans-serif" font-size="13" lengthAdjust="spacing" textLength="187" x="288" y="253.0278">average(measurments_NO2)</text><polygon fill="#181818" points="292,283.2266,282,287.2266,292,291.2266,288,287.2266" style="stroke:#181818;stroke-width:1.0;"/><line style="stroke:#181818;stroke-width:1.0;stroke-dasharray:2.0,2.0;" x1="286" x2="656" y1="287.2266" y2="287.2266"/><text fill="#000000" font-family="sans-serif" font-size="13" lengthAdjust="spacing" textLength="80" x="298" y="282.1606">averageNO2</text><polygon fill="#181818" points="640,312.3594,650,316.3594,640,320.3594,644,316.3594" style="stroke:#181818;stroke-width:1.0;"/><line style="stroke:#181818;stroke-width:1.0;" x1="281" x2="646" y1="316.3594" y2="316.3594"/><text fill="#000000" font-family="sans-serif" font-size="13" lengthAdjust="spacing" textLength="194" x="288" y="311.2935">average(measurments_PM10)</text><polygon fill="#181818" points="292,341.4922,282,345.4922,292,349.4922,288,345.4922" style="stroke:#181818;stroke-width:1.0;"/><line style="stroke:#181818;stroke-width:1.0;stroke-dasharray:2.0,2.0;" x1="286" x2="656" y1="345.4922" y2="345.4922"/><text fill="#000000" font-family="sans-serif" font-size="13" lengthAdjust="spacing" textLength="87" x="298" y="340.4263">averagePM10</text><polygon fill="#181818" points="140,370.625,130,374.625,140,378.625,136,374.625" style="stroke:#181818;stroke-width:1.0;"/><line style="stroke:#181818;stroke-width:1.0;" x1="134" x2="270" y1="374.625" y2="374.625"/><text fill="#000000" font-family="sans-serif" font-size="13" lengthAdjust="spacing" textLength="83" x="146" y="369.5591">getSensors()</text><polygon fill="#181818" points="259,399.7578,269,403.7578,259,407.7578,263,403.7578" style="stroke:#181818;stroke-width:1.0;"/><line style="stroke:#181818;stroke-width:1.0;stroke-dasharray:2.0,2.0;" x1="124" x2="265" y1="403.7578" y2="403.7578"/><text fill="#000000" font-family="sans-serif" font-size="13" lengthAdjust="spacing" textLength="118" x="131" y="398.6919">a list of all sensors</text><path d="M234.5,418.7578 L311.5,418.7578 L311.5,425.8906 L301.5,435.8906 L234.5,435.8906 L234.5,418.7578 " fill="#EEEEEE" style="stroke:#000000;stroke-width:1.5;"/><rect fill="none" height="185.6641" style="stroke:#000000;stroke-width:1.5;" width="422.5" x="234.5" y="418.7578"/><text fill="#000000" font-family="sans-serif" font-size="13" font-weight="bold" lengthAdjust="spacing" textLength="32" x="249.5" y="431.8247">loop</text><text fill="#000000" font-family="sans-serif" font-size="11" font-weight="bold" lengthAdjust="spacing" textLength="266" x="326.5" y="430.9683">[for each sensor in the list of all sensors]</text><line style="stroke:#181818;stroke-width:1.0;" x1="281" x2="328" y1="452.0234" y2="452.0234"/><line style="stroke:#181818;stroke-width:1.0;" x1="328" x2="328" y1="452.0234" y2="465.0234"/><line style="stroke:#181818;stroke-width:1.0;" x1="287" x2="328" y1="465.0234" y2="465.0234"/><polygon fill="#181818" points="297,461.0234,287,465.0234,297,469.0234,293,465.0234" style="stroke:#181818;stroke-width:1.0;"/><text fill="#000000" font-family="sans-serif" font-size="13" lengthAdjust="spacing" textLength="157" x="293" y="446.9575">calculate similarity score</text><line style="stroke:#181818;stroke-width:1.0;" x1="286" x2="328" y1="499.1563" y2="499.1563"/><line style="stroke:#181818;stroke-width:1.0;" x1="328" x2="328" y1="499.1563" y2="512.1563"/><line style="stroke:#181818;stroke-width:1.0;" x1="287" x2="328" y1="512.1563" y2="512.1563"/><polygon fill="#181818" points="297,508.1563,287,512.1563,297,516.1563,293,512.1563" style="stroke:#181818;stroke-width:1.0;"/><text fill="#000000" font-family="sans-serif" font-size="13" lengthAdjust="spacing" textLength="213" x="293" y="494.0903">calculate otherSensor's averages</text><line style="stroke:#181818;stroke-width:1.0;" x1="286" x2="328" y1="541.2891" y2="541.2891"/><line style="stroke:#181818;stroke-width:1.0;" x1="328" x2="328" y1="541.2891" y2="554.2891"/><line style="stroke:#181818;stroke-width:1.0;" x1="287" x2="328" y1="554.2891" y2="554.2891"/><polygon fill="#181818" points="297,550.2891,287,554.2891,297,558.2891,293,554.2891" style="stroke:#181818;stroke-width:1.0;"/><text fill="#000000" font-family="sans-serif" font-size="13" lengthAdjust="spacing" textLength="202" x="293" y="536.2231">calculate difference in averages</text><line style="stroke:#181818;stroke-width:1.0;" x1="286" x2="328" y1="588.4219" y2="588.4219"/><line style="stroke:#181818;stroke-width:1.0;" x1="328" x2="328" y1="588.4219" y2="601.4219"/><line style="stroke:#181818;stroke-width:1.0;" x1="281" x2="328" y1="601.4219" y2="601.4219"/><polygon fill="#181818" points="291,597.4219,281,601.4219,291,605.4219,287,601.4219" style="stroke:#181818;stroke-width:1.0;"/><text fill="#000000" font-family="sans-serif" font-size="13" lengthAdjust="spacing" textLength="337" x="293" y="583.356">accumulate difference in averages to similarity score</text><line style="stroke:#181818;stroke-width:1.0;" x1="281" x2="323" y1="632.5547" y2="632.5547"/><line style="stroke:#181818;stroke-width:1.0;" x1="323" x2="323" y1="632.5547" y2="645.5547"/><line style="stroke:#181818;stroke-width:1.0;" x1="282" x2="323" y1="645.5547" y2="645.5547"/><polygon fill="#181818" points="292,641.5547,282,645.5547,292,649.5547,288,645.5547" style="stroke:#181818;stroke-width:1.0;"/><text fill="#000000" font-family="sans-serif" font-size="13" lengthAdjust="spacing" textLength="286" x="288" y="627.4888">sort similarSensors based on similarity score</text><polygon fill="#181818" points="38,670.6875,28,674.6875,38,678.6875,34,674.6875" style="stroke:#181818;stroke-width:1.0;"/><line style="stroke:#181818;stroke-width:1.0;stroke-dasharray:2.0,2.0;" x1="32" x2="275" y1="674.6875" y2="674.6875"/><text fill="#000000" font-family="sans-serif" font-size="13" lengthAdjust="spacing" textLength="94" x="44" y="669.6216">similarSensors</text><!--SRC=[fPHDQiCm44RtEiMGJTD5e6rsNXHAreqBEK2PokD484j66WTw-ygHJ1Cfr0tnmZ-ot_SapM2KR1riK6joeaV7IgeU3SEEZBTkOmsZCbVVNGmjy4WEzxG0zF0MxuM8kR1wJKW5U-ATwfH6jymCZm8bgoCoJVaYNaSy9LQGDCkEq0-k8yF-irwViPCxNM5r9azmlHOD5S1_RRlwvJPT0ExnRM_rRU_pVRm_Fzqc78aPOrRhs0UdCRyi2l_RTDdpfHoqyWosXT1au6FO-JJoCA6jxQ4D4mhV7181oW0Vw6eMX2DVGWKIjHpqAF2naHL_WvVMqGd8ctWkn0QxYyCFVjhHUNUZsfOS6KdZ2cOmb7Be_kA0xVNL5Difo3HbOIi89vuYKc7X2pqrO4qPFV4X8FuYgemjw_W3]--></g></svg>