<svg xmlns="http://www.w3.org/2000/svg" xmlns:xlink="http://www.w3.org/1999/xlink" contentStyleType="text/css" height="1585px" preserveAspectRatio="none" style="width:981px;height:1585px;background:#FFFFFF;" version="1.1" viewBox="0 0 981 1585" width="981px" zoomAndPan="magnify"><defs/><g><rect fill="#FFFFFF" height="29.1328" style="stroke:#181818;stroke-width:1.0;" width="10" x="134" y="871.8828"/><rect fill="#FFFFFF" height="1381.8438" style="stroke:#181818;stroke-width:1.0;" width="10" x="299" y="112.4297"/><rect fill="#FFFFFF" height="28" style="stroke:#181818;stroke-width:1.0;" width="10" x="304" y="962.2813"/><rect fill="#FFFFFF" height="29.1328" style="stroke:#181818;stroke-width:1.0;" width="10" x="691" y="170.6953"/><rect fill="#FFFFFF" height="29.1328" style="stroke:#181818;stroke-width:1.0;" width="10" x="691" y="287.2266"/><rect fill="#FFFFFF" height="29.1328" style="stroke:#181818;stroke-width:1.0;" width="10" x="691" y="403.7578"/><rect fill="#FFFFFF" height="29.1328" style="stroke:#181818;stroke-width:1.0;" width="10" x="691" y="520.2891"/><rect fill="#FFFFFF" height="29.1328" style="stroke:#181818;stroke-width:1.0;" width="10" x="691" y="631.8203"/><rect fill="#FFFFFF" height="29.1328" style="stroke:#181818;stroke-width:1.0;" width="10" x="691" y="690.0859"/><rect fill="#FFFFFF" height="29.1328" style="stroke:#181818;stroke-width:1.0;" width="10" x="691" y="748.3516"/><rect fill="#FFFFFF" height="29.1328" style="stroke:#181818;stroke-width:1.0;" width="10" x="691" y="806.6172"/><rect fill="#FFFFFF" height="29.1328" style="stroke:#181818;stroke-width:1.0;" width="10" x="691" y="1050.5469"/><rect fill="#FFFFFF" height="29.1328" style="stroke:#181818;stroke-width:1.0;" width="10" x="691" y="1108.8125"/><rect fill="#FFFFFF" height="29.1328" style="stroke:#181818;stroke-width:1.0;" width="10" x="691" y="1167.0781"/><rect fill="#FFFFFF" height="29.1328" style="stroke:#181818;stroke-width:1.0;" width="10" x="691" y="1225.3438"/><rect fill="#FFFFFF" height="87.3984" style="stroke:#181818;stroke-width:1.0;" width="10" x="935" y="141.5625"/><rect fill="#FFFFFF" height="87.3984" style="stroke:#181818;stroke-width:1.0;" width="10" x="935" y="258.0938"/><rect fill="#FFFFFF" height="87.3984" style="stroke:#181818;stroke-width:1.0;" width="10" x="935" y="374.625"/><rect fill="#FFFFFF" height="87.3984" style="stroke:#181818;stroke-width:1.0;" width="10" x="935" y="491.1563"/><rect fill="none" height="250.1953" style="stroke:#000000;stroke-width:1.5;" width="466" x="262.5" y="593.5547"/><rect fill="none" height="353.4609" style="stroke:#000000;stroke-width:1.5;" width="486" x="252.5" y="916.0156"/><rect fill="none" height="250.1953" style="stroke:#000000;stroke-width:1.5;" width="466" x="262.5" y="1012.2813"/><rect fill="none" height="119.5313" style="stroke:#000000;stroke-width:1.5;" width="435" x="10" y="1367.7422"/><line style="stroke:#181818;stroke-width:0.5;stroke-dasharray:5.0,5.0;" x1="42" x2="42" y1="81.2969" y2="1504.2734"/><line style="stroke:#181818;stroke-width:0.5;stroke-dasharray:5.0,5.0;" x1="139" x2="139" y1="81.2969" y2="1504.2734"/><line style="stroke:#181818;stroke-width:0.5;stroke-dasharray:5.0,5.0;" x1="303.5" x2="303.5" y1="81.2969" y2="1504.2734"/><line style="stroke:#181818;stroke-width:0.5;stroke-dasharray:5.0,5.0;" x1="695.5" x2="695.5" y1="81.2969" y2="1504.2734"/><line style="stroke:#181818;stroke-width:0.5;stroke-dasharray:5.0,5.0;" x1="940" x2="940" y1="81.2969" y2="1504.2734"/><text fill="#000000" font-family="sans-serif" font-size="14" lengthAdjust="spacing" textLength="38" x="20" y="77.9951">Caller</text><ellipse cx="42" cy="13.5" fill="#E2E2F0" rx="8" ry="8" style="stroke:#181818;stroke-width:0.5;"/><path d="M42,21.5 L42,48.5 M29,29.5 L55,29.5 M42,48.5 L29,63.5 M42,48.5 L55,63.5 " fill="none" style="stroke:#181818;stroke-width:0.5;"/><text fill="#000000" font-family="sans-serif" font-size="14" lengthAdjust="spacing" textLength="38" x="20" y="1516.2686">Caller</text><ellipse cx="42" cy="1528.0703" fill="#E2E2F0" rx="8" ry="8" style="stroke:#181818;stroke-width:0.5;"/><path d="M42,1536.0703 L42,1563.0703 M29,1544.0703 L55,1544.0703 M42,1563.0703 L29,1578.0703 M42,1563.0703 L55,1578.0703 " fill="none" style="stroke:#181818;stroke-width:0.5;"/><rect fill="#E2E2F0" height="30.2969" rx="2.5" ry="2.5" style="stroke:#181818;stroke-width:0.5;" width="130" x="74" y="50"/><text fill="#000000" font-family="sans-serif" font-size="14" lengthAdjust="spacing" textLength="116" x="81" y="69.9951">SensorContainer</text><rect fill="#E2E2F0" height="30.2969" rx="2.5" ry="2.5" style="stroke:#181818;stroke-width:0.5;" width="130" x="74" y="1503.2734"/><text fill="#000000" font-family="sans-serif" font-size="14" lengthAdjust="spacing" textLength="116" x="81" y="1523.2686">SensorContainer</text><rect fill="#E2E2F0" height="30.2969" rx="2.5" ry="2.5" style="stroke:#181818;stroke-width:0.5;" width="63" x="272.5" y="50"/><text fill="#000000" font-family="sans-serif" font-size="14" lengthAdjust="spacing" textLength="49" x="279.5" y="69.9951">Sensor</text><rect fill="#E2E2F0" height="30.2969" rx="2.5" ry="2.5" style="stroke:#181818;stroke-width:0.5;" width="63" x="272.5" y="1503.2734"/><text fill="#000000" font-family="sans-serif" font-size="14" lengthAdjust="spacing" textLength="49" x="279.5" y="1523.2686">Sensor</text><rect fill="#E2E2F0" height="30.2969" rx="2.5" ry="2.5" style="stroke:#181818;stroke-width:0.5;" width="45" x="673.5" y="50"/><text fill="#000000" font-family="sans-serif" font-size="14" lengthAdjust="spacing" textLength="31" x="680.5" y="69.9951">Sum</text><rect fill="#E2E2F0" height="30.2969" rx="2.5" ry="2.5" style="stroke:#181818;stroke-width:0.5;" width="45" x="673.5" y="1503.2734"/><text fill="#000000" font-family="sans-serif" font-size="14" lengthAdjust="spacing" textLength="31" x="680.5" y="1523.2686">Sum</text><rect fill="#E2E2F0" height="30.2969" rx="2.5" ry="2.5" style="stroke:#181818;stroke-width:0.5;" width="70" x="905" y="50"/><text fill="#000000" font-family="sans-serif" font-size="14" lengthAdjust="spacing" textLength="56" x="912" y="69.9951">Average</text><rect fill="#E2E2F0" height="30.2969" rx="2.5" ry="2.5" style="stroke:#181818;stroke-width:0.5;" width="70" x="905" y="1503.2734"/><text fill="#000000" font-family="sans-serif" font-size="14" lengthAdjust="spacing" textLength="56" x="912" y="1523.2686">Average</text><rect fill="#FFFFFF" height="29.1328" style="stroke:#181818;stroke-width:1.0;" width="10" x="134" y="871.8828"/><rect fill="#FFFFFF" height="1381.8438" style="stroke:#181818;stroke-width:1.0;" width="10" x="299" y="112.4297"/><rect fill="#FFFFFF" height="28" style="stroke:#181818;stroke-width:1.0;" width="10" x="304" y="962.2813"/><rect fill="#FFFFFF" height="29.1328" style="stroke:#181818;stroke-width:1.0;" width="10" x="691" y="170.6953"/><rect fill="#FFFFFF" height="29.1328" style="stroke:#181818;stroke-width:1.0;" width="10" x="691" y="287.2266"/><rect fill="#FFFFFF" height="29.1328" style="stroke:#181818;stroke-width:1.0;" width="10" x="691" y="403.7578"/><rect fill="#FFFFFF" height="29.1328" style="stroke:#181818;stroke-width:1.0;" width="10" x="691" y="520.2891"/><rect fill="#FFFFFF" height="29.1328" style="stroke:#181818;stroke-width:1.0;" width="10" x="691" y="631.8203"/><rect fill="#FFFFFF" height="29.1328" style="stroke:#181818;stroke-width:1.0;" width="10" x="691" y="690.0859"/><rect fill="#FFFFFF" height="29.1328" style="stroke:#181818;stroke-width:1.0;" width="10" x="691" y="748.3516"/><rect fill="#FFFFFF" height="29.1328" style="stroke:#181818;stroke-width:1.0;" width="10" x="691" y="806.6172"/><rect fill="#FFFFFF" height="29.1328" style="stroke:#181818;stroke-width:1.0;" width="10" x="691" y="1050.5469"/><rect fill="#FFFFFF" height="29.1328" style="stroke:#181818;stroke-width:1.0;" width="10" x="691" y="1108.8125"/><rect fill="#FFFFFF" height="29.1328" style="stroke:#181818;stroke-width:1.0;" width="10" x="691" y="1167.0781"/><rect fill="#FFFFFF" height="29.1328" style="stroke:#181818;stroke-width:1.0;" width="10" x="691" y="1225.3438"/><rect fill="#FFFFFF" height="87.3984" style="stroke:#181818;stroke-width:1.0;" width="10" x="935" y="141.5625"/><rect fill="#FFFFFF" height="87.3984" style="stroke:#181818;stroke-width:1.0;" width="10" x="935" y="258.0938"/><rect fill="#FFFFFF" height="87.3984" style="stroke:#181818;stroke-width:1.0;" width="10" x="935" y="374.625"/><rect fill="#FFFFFF" height="87.3984" style="stroke:#181818;stroke-width:1.0;" width="10" x="935" y="491.1563"/><polygon fill="#181818" points="287,108.4297,297,112.4297,287,116.4297,291,112.4297" style="stroke:#181818;stroke-width:1.0;"/><line style="stroke:#181818;stroke-width:1.0;" x1="42" x2="293" y1="112.4297" y2="112.4297"/><text fill="#000000" font-family="sans-serif" font-size="13" lengthAdjust="spacing" textLength="157" x="49" y="107.3638">isFalty(SensorContainer)</text><polygon fill="#181818" points="923,137.5625,933,141.5625,923,145.5625,927,141.5625" style="stroke:#181818;stroke-width:1.0;"/><line style="stroke:#181818;stroke-width:1.0;" x1="309" x2="929" y1="141.5625" y2="141.5625"/><text fill="#000000" font-family="sans-serif" font-size="13" lengthAdjust="spacing" textLength="177" x="316" y="136.4966">average(measurments_O3)</text><polygon fill="#181818" points="712,166.6953,702,170.6953,712,174.6953,708,170.6953" style="stroke:#181818;stroke-width:1.0;"/><line style="stroke:#181818;stroke-width:1.0;" x1="706" x2="934" y1="170.6953" y2="170.6953"/><text fill="#000000" font-family="sans-serif" font-size="13" lengthAdjust="spacing" textLength="153" x="718" y="165.6294">sum(measurments_O3)</text><polygon fill="#181818" points="923,195.8281,933,199.8281,923,203.8281,927,199.8281" style="stroke:#181818;stroke-width:1.0;"/><line style="stroke:#181818;stroke-width:1.0;stroke-dasharray:2.0,2.0;" x1="696" x2="929" y1="199.8281" y2="199.8281"/><text fill="#000000" font-family="sans-serif" font-size="13" lengthAdjust="spacing" textLength="193" x="703" y="194.7622">the sum of O3 measurements</text><polygon fill="#181818" points="320,224.9609,310,228.9609,320,232.9609,316,228.9609" style="stroke:#181818;stroke-width:1.0;"/><line style="stroke:#181818;stroke-width:1.0;stroke-dasharray:2.0,2.0;" x1="314" x2="939" y1="228.9609" y2="228.9609"/><text fill="#000000" font-family="sans-serif" font-size="13" lengthAdjust="spacing" textLength="217" x="326" y="223.895">the average of O3 measurements</text><polygon fill="#181818" points="923,254.0938,933,258.0938,923,262.0938,927,258.0938" style="stroke:#181818;stroke-width:1.0;"/><line style="stroke:#181818;stroke-width:1.0;" x1="309" x2="929" y1="258.0938" y2="258.0938"/><text fill="#000000" font-family="sans-serif" font-size="13" lengthAdjust="spacing" textLength="186" x="316" y="253.0278">average(measurments_SO2)</text><polygon fill="#181818" points="712,283.2266,702,287.2266,712,291.2266,708,287.2266" style="stroke:#181818;stroke-width:1.0;"/><line style="stroke:#181818;stroke-width:1.0;" x1="706" x2="934" y1="287.2266" y2="287.2266"/><text fill="#000000" font-family="sans-serif" font-size="13" lengthAdjust="spacing" textLength="162" x="718" y="282.1606">sum(measurments_SO2)</text><polygon fill="#181818" points="923,312.3594,933,316.3594,923,320.3594,927,316.3594" style="stroke:#181818;stroke-width:1.0;"/><line style="stroke:#181818;stroke-width:1.0;stroke-dasharray:2.0,2.0;" x1="696" x2="929" y1="316.3594" y2="316.3594"/><text fill="#000000" font-family="sans-serif" font-size="13" lengthAdjust="spacing" textLength="202" x="703" y="311.2935">the sum of SO2 measurements</text><polygon fill="#181818" points="320,341.4922,310,345.4922,320,349.4922,316,345.4922" style="stroke:#181818;stroke-width:1.0;"/><line style="stroke:#181818;stroke-width:1.0;stroke-dasharray:2.0,2.0;" x1="314" x2="939" y1="345.4922" y2="345.4922"/><text fill="#000000" font-family="sans-serif" font-size="13" lengthAdjust="spacing" textLength="226" x="326" y="340.4263">the average of SO2 measurements</text><polygon fill="#181818" points="923,370.625,933,374.625,923,378.625,927,374.625" style="stroke:#181818;stroke-width:1.0;"/><line style="stroke:#181818;stroke-width:1.0;" x1="309" x2="929" y1="374.625" y2="374.625"/><text fill="#000000" font-family="sans-serif" font-size="13" lengthAdjust="spacing" textLength="187" x="316" y="369.5591">average(measurments_NO2)</text><polygon fill="#181818" points="712,399.7578,702,403.7578,712,407.7578,708,403.7578" style="stroke:#181818;stroke-width:1.0;"/><line style="stroke:#181818;stroke-width:1.0;" x1="706" x2="934" y1="403.7578" y2="403.7578"/><text fill="#000000" font-family="sans-serif" font-size="13" lengthAdjust="spacing" textLength="163" x="718" y="398.6919">sum(measurments_NO2)</text><polygon fill="#181818" points="923,428.8906,933,432.8906,923,436.8906,927,432.8906" style="stroke:#181818;stroke-width:1.0;"/><line style="stroke:#181818;stroke-width:1.0;stroke-dasharray:2.0,2.0;" x1="696" x2="929" y1="432.8906" y2="432.8906"/><text fill="#000000" font-family="sans-serif" font-size="13" lengthAdjust="spacing" textLength="203" x="703" y="427.8247">the sum of NO2 measurements</text><polygon fill="#181818" points="320,458.0234,310,462.0234,320,466.0234,316,462.0234" style="stroke:#181818;stroke-width:1.0;"/><line style="stroke:#181818;stroke-width:1.0;stroke-dasharray:2.0,2.0;" x1="314" x2="939" y1="462.0234" y2="462.0234"/><text fill="#000000" font-family="sans-serif" font-size="13" lengthAdjust="spacing" textLength="227" x="326" y="456.9575">the average of NO2 measurements</text><polygon fill="#181818" points="923,487.1563,933,491.1563,923,495.1563,927,491.1563" style="stroke:#181818;stroke-width:1.0;"/><line style="stroke:#181818;stroke-width:1.0;" x1="309" x2="929" y1="491.1563" y2="491.1563"/><text fill="#000000" font-family="sans-serif" font-size="13" lengthAdjust="spacing" textLength="194" x="316" y="486.0903">average(measurments_PM10)</text><polygon fill="#181818" points="712,516.2891,702,520.2891,712,524.2891,708,520.2891" style="stroke:#181818;stroke-width:1.0;"/><line style="stroke:#181818;stroke-width:1.0;" x1="706" x2="934" y1="520.2891" y2="520.2891"/><text fill="#000000" font-family="sans-serif" font-size="13" lengthAdjust="spacing" textLength="170" x="718" y="515.2231">sum(measurments_PM10)</text><polygon fill="#181818" points="923,545.4219,933,549.4219,923,553.4219,927,549.4219" style="stroke:#181818;stroke-width:1.0;"/><line style="stroke:#181818;stroke-width:1.0;stroke-dasharray:2.0,2.0;" x1="696" x2="929" y1="549.4219" y2="549.4219"/><text fill="#000000" font-family="sans-serif" font-size="13" lengthAdjust="spacing" textLength="210" x="703" y="544.356">the sum of PM10 measurements</text><polygon fill="#181818" points="320,574.5547,310,578.5547,320,582.5547,316,578.5547" style="stroke:#181818;stroke-width:1.0;"/><line style="stroke:#181818;stroke-width:1.0;stroke-dasharray:2.0,2.0;" x1="314" x2="939" y1="578.5547" y2="578.5547"/><text fill="#000000" font-family="sans-serif" font-size="13" lengthAdjust="spacing" textLength="234" x="326" y="573.4888">the average of PM10 measurements</text><path d="M262.5,593.5547 L326.5,593.5547 L326.5,600.6875 L316.5,610.6875 L262.5,610.6875 L262.5,593.5547 " fill="#EEEEEE" style="stroke:#000000;stroke-width:1.5;"/><rect fill="none" height="250.1953" style="stroke:#000000;stroke-width:1.5;" width="466" x="262.5" y="593.5547"/><text fill="#000000" font-family="sans-serif" font-size="13" font-weight="bold" lengthAdjust="spacing" textLength="19" x="277.5" y="606.6216">alt</text><text fill="#000000" font-family="sans-serif" font-size="11" font-weight="bold" lengthAdjust="spacing" textLength="339" x="341.5" y="605.7651">[if distance &lt; RAYON and sensorID != otherSensorID]</text><polygon fill="#181818" points="679,627.8203,689,631.8203,679,635.8203,683,631.8203" style="stroke:#181818;stroke-width:1.0;"/><line style="stroke:#181818;stroke-width:1.0;" x1="309" x2="685" y1="631.8203" y2="631.8203"/><text fill="#000000" font-family="sans-serif" font-size="13" lengthAdjust="spacing" textLength="145" x="316" y="626.7544">sum(otherSensor[O3])</text><polygon fill="#181818" points="320,656.9531,310,660.9531,320,664.9531,316,660.9531" style="stroke:#181818;stroke-width:1.0;"/><line style="stroke:#181818;stroke-width:1.0;stroke-dasharray:2.0,2.0;" x1="314" x2="695" y1="660.9531" y2="660.9531"/><text fill="#000000" font-family="sans-serif" font-size="13" lengthAdjust="spacing" textLength="341" x="326" y="655.8872">the sum of O3 measurements of the neighbor sensor</text><polygon fill="#181818" points="679,686.0859,689,690.0859,679,694.0859,683,690.0859" style="stroke:#181818;stroke-width:1.0;"/><line style="stroke:#181818;stroke-width:1.0;" x1="309" x2="685" y1="690.0859" y2="690.0859"/><text fill="#000000" font-family="sans-serif" font-size="13" lengthAdjust="spacing" textLength="154" x="316" y="685.02">sum(otherSensor[SO2])</text><polygon fill="#181818" points="320,715.2188,310,719.2188,320,723.2188,316,719.2188" style="stroke:#181818;stroke-width:1.0;"/><line style="stroke:#181818;stroke-width:1.0;stroke-dasharray:2.0,2.0;" x1="314" x2="695" y1="719.2188" y2="719.2188"/><text fill="#000000" font-family="sans-serif" font-size="13" lengthAdjust="spacing" textLength="350" x="326" y="714.1528">the sum of SO2 measurements of the neighbor sensor</text><polygon fill="#181818" points="679,744.3516,689,748.3516,679,752.3516,683,748.3516" style="stroke:#181818;stroke-width:1.0;"/><line style="stroke:#181818;stroke-width:1.0;" x1="309" x2="685" y1="748.3516" y2="748.3516"/><text fill="#000000" font-family="sans-serif" font-size="13" lengthAdjust="spacing" textLength="155" x="316" y="743.2856">sum(otherSensor[NO2])</text><polygon fill="#181818" points="320,773.4844,310,777.4844,320,781.4844,316,777.4844" style="stroke:#181818;stroke-width:1.0;"/><line style="stroke:#181818;stroke-width:1.0;stroke-dasharray:2.0,2.0;" x1="314" x2="695" y1="777.4844" y2="777.4844"/><text fill="#000000" font-family="sans-serif" font-size="13" lengthAdjust="spacing" textLength="351" x="326" y="772.4185">the sum of NO2 measurements of the neighbor sensor</text><polygon fill="#181818" points="679,802.6172,689,806.6172,679,810.6172,683,806.6172" style="stroke:#181818;stroke-width:1.0;"/><line style="stroke:#181818;stroke-width:1.0;" x1="309" x2="685" y1="806.6172" y2="806.6172"/><text fill="#000000" font-family="sans-serif" font-size="13" lengthAdjust="spacing" textLength="162" x="316" y="801.5513">sum(otherSensor[PM10])</text><polygon fill="#181818" points="320,831.75,310,835.75,320,839.75,316,835.75" style="stroke:#181818;stroke-width:1.0;"/><line style="stroke:#181818;stroke-width:1.0;stroke-dasharray:2.0,2.0;" x1="314" x2="695" y1="835.75" y2="835.75"/><text fill="#000000" font-family="sans-serif" font-size="13" lengthAdjust="spacing" textLength="358" x="326" y="830.6841">the sum of PM10 measurements of the neighbor sensor</text><polygon fill="#181818" points="155,867.8828,145,871.8828,155,875.8828,151,871.8828" style="stroke:#181818;stroke-width:1.0;"/><line style="stroke:#181818;stroke-width:1.0;" x1="149" x2="298" y1="871.8828" y2="871.8828"/><text fill="#000000" font-family="sans-serif" font-size="13" lengthAdjust="spacing" textLength="83" x="161" y="866.8169">getSensors()</text><polygon fill="#181818" points="287,897.0156,297,901.0156,287,905.0156,291,901.0156" style="stroke:#181818;stroke-width:1.0;"/><line style="stroke:#181818;stroke-width:1.0;stroke-dasharray:2.0,2.0;" x1="139" x2="293" y1="901.0156" y2="901.0156"/><text fill="#000000" font-family="sans-serif" font-size="13" lengthAdjust="spacing" textLength="131" x="146" y="895.9497">the list of all sensors</text><path d="M252.5,916.0156 L329.5,916.0156 L329.5,923.1484 L319.5,933.1484 L252.5,933.1484 L252.5,916.0156 " fill="#EEEEEE" style="stroke:#000000;stroke-width:1.5;"/><rect fill="none" height="353.4609" style="stroke:#000000;stroke-width:1.5;" width="486" x="252.5" y="916.0156"/><text fill="#000000" font-family="sans-serif" font-size="13" font-weight="bold" lengthAdjust="spacing" textLength="32" x="267.5" y="929.0825">loop</text><text fill="#000000" font-family="sans-serif" font-size="11" font-weight="bold" lengthAdjust="spacing" textLength="266" x="344.5" y="928.2261">[for each sensor in the list of all sensors]</text><line style="stroke:#181818;stroke-width:1.0;" x1="314" x2="356" y1="954.2813" y2="954.2813"/><line style="stroke:#181818;stroke-width:1.0;" x1="356" x2="356" y1="954.2813" y2="967.2813"/><line style="stroke:#181818;stroke-width:1.0;" x1="315" x2="356" y1="967.2813" y2="967.2813"/><polygon fill="#181818" points="325,963.2813,315,967.2813,325,971.2813,321,967.2813" style="stroke:#181818;stroke-width:1.0;"/><text fill="#000000" font-family="sans-serif" font-size="13" lengthAdjust="spacing" textLength="124" x="321" y="949.2153">DistanceTo(sensor)</text><path d="M262.5,1012.2813 L326.5,1012.2813 L326.5,1019.4141 L316.5,1029.4141 L262.5,1029.4141 L262.5,1012.2813 " fill="#EEEEEE" style="stroke:#000000;stroke-width:1.5;"/><rect fill="none" height="250.1953" style="stroke:#000000;stroke-width:1.5;" width="466" x="262.5" y="1012.2813"/><text fill="#000000" font-family="sans-serif" font-size="13" font-weight="bold" lengthAdjust="spacing" textLength="19" x="277.5" y="1025.3481">alt</text><text fill="#000000" font-family="sans-serif" font-size="11" font-weight="bold" lengthAdjust="spacing" textLength="339" x="341.5" y="1024.4917">[if distance &lt; RAYON and sensorID != otherSensorID]</text><polygon fill="#181818" points="679,1046.5469,689,1050.5469,679,1054.5469,683,1050.5469" style="stroke:#181818;stroke-width:1.0;"/><line style="stroke:#181818;stroke-width:1.0;" x1="309" x2="685" y1="1050.5469" y2="1050.5469"/><text fill="#000000" font-family="sans-serif" font-size="13" lengthAdjust="spacing" textLength="145" x="316" y="1045.481">sum(otherSensor[O3])</text><polygon fill="#181818" points="320,1075.6797,310,1079.6797,320,1083.6797,316,1079.6797" style="stroke:#181818;stroke-width:1.0;"/><line style="stroke:#181818;stroke-width:1.0;stroke-dasharray:2.0,2.0;" x1="314" x2="695" y1="1079.6797" y2="1079.6797"/><text fill="#000000" font-family="sans-serif" font-size="13" lengthAdjust="spacing" textLength="341" x="326" y="1074.6138">the sum of O3 measurements of the neighbor sensor</text><polygon fill="#181818" points="679,1104.8125,689,1108.8125,679,1112.8125,683,1108.8125" style="stroke:#181818;stroke-width:1.0;"/><line style="stroke:#181818;stroke-width:1.0;" x1="309" x2="685" y1="1108.8125" y2="1108.8125"/><text fill="#000000" font-family="sans-serif" font-size="13" lengthAdjust="spacing" textLength="154" x="316" y="1103.7466">sum(otherSensor[SO2])</text><polygon fill="#181818" points="320,1133.9453,310,1137.9453,320,1141.9453,316,1137.9453" style="stroke:#181818;stroke-width:1.0;"/><line style="stroke:#181818;stroke-width:1.0;stroke-dasharray:2.0,2.0;" x1="314" x2="695" y1="1137.9453" y2="1137.9453"/><text fill="#000000" font-family="sans-serif" font-size="13" lengthAdjust="spacing" textLength="350" x="326" y="1132.8794">the sum of SO2 measurements of the neighbor sensor</text><polygon fill="#181818" points="679,1163.0781,689,1167.0781,679,1171.0781,683,1167.0781" style="stroke:#181818;stroke-width:1.0;"/><line style="stroke:#181818;stroke-width:1.0;" x1="309" x2="685" y1="1167.0781" y2="1167.0781"/><text fill="#000000" font-family="sans-serif" font-size="13" lengthAdjust="spacing" textLength="155" x="316" y="1162.0122">sum(otherSensor[NO2])</text><polygon fill="#181818" points="320,1192.2109,310,1196.2109,320,1200.2109,316,1196.2109" style="stroke:#181818;stroke-width:1.0;"/><line style="stroke:#181818;stroke-width:1.0;stroke-dasharray:2.0,2.0;" x1="314" x2="695" y1="1196.2109" y2="1196.2109"/><text fill="#000000" font-family="sans-serif" font-size="13" lengthAdjust="spacing" textLength="351" x="326" y="1191.145">the sum of NO2 measurements of the neighbor sensor</text><polygon fill="#181818" points="679,1221.3438,689,1225.3438,679,1229.3438,683,1225.3438" style="stroke:#181818;stroke-width:1.0;"/><line style="stroke:#181818;stroke-width:1.0;" x1="309" x2="685" y1="1225.3438" y2="1225.3438"/><text fill="#000000" font-family="sans-serif" font-size="13" lengthAdjust="spacing" textLength="162" x="316" y="1220.2778">sum(otherSensor[PM10])</text><polygon fill="#181818" points="320,1250.4766,310,1254.4766,320,1258.4766,316,1254.4766" style="stroke:#181818;stroke-width:1.0;"/><line style="stroke:#181818;stroke-width:1.0;stroke-dasharray:2.0,2.0;" x1="314" x2="695" y1="1254.4766" y2="1254.4766"/><text fill="#000000" font-family="sans-serif" font-size="13" lengthAdjust="spacing" textLength="358" x="326" y="1249.4106">the sum of PM10 measurements of the neighbor sensor</text><line style="stroke:#181818;stroke-width:1.0;" x1="309" x2="351" y1="1297.6094" y2="1297.6094"/><line style="stroke:#181818;stroke-width:1.0;" x1="351" x2="351" y1="1297.6094" y2="1310.6094"/><line style="stroke:#181818;stroke-width:1.0;" x1="310" x2="351" y1="1310.6094" y2="1310.6094"/><polygon fill="#181818" points="320,1306.6094,310,1310.6094,320,1314.6094,316,1310.6094" style="stroke:#181818;stroke-width:1.0;"/><text fill="#000000" font-family="sans-serif" font-size="13" lengthAdjust="spacing" textLength="229" x="316" y="1292.5435">calculate average_neighbour values</text><line style="stroke:#181818;stroke-width:1.0;" x1="309" x2="351" y1="1339.7422" y2="1339.7422"/><line style="stroke:#181818;stroke-width:1.0;" x1="351" x2="351" y1="1339.7422" y2="1352.7422"/><line style="stroke:#181818;stroke-width:1.0;" x1="310" x2="351" y1="1352.7422" y2="1352.7422"/><polygon fill="#181818" points="320,1348.7422,310,1352.7422,320,1356.7422,316,1352.7422" style="stroke:#181818;stroke-width:1.0;"/><text fill="#000000" font-family="sans-serif" font-size="13" lengthAdjust="spacing" textLength="220" x="316" y="1334.6763">compare averages with thresholds</text><path d="M10,1367.7422 L74,1367.7422 L74,1374.875 L64,1384.875 L10,1384.875 L10,1367.7422 " fill="#EEEEEE" style="stroke:#000000;stroke-width:1.5;"/><rect fill="none" height="119.5313" style="stroke:#000000;stroke-width:1.5;" width="435" x="10" y="1367.7422"/><text fill="#000000" font-family="sans-serif" font-size="13" font-weight="bold" lengthAdjust="spacing" textLength="19" x="25" y="1380.8091">alt</text><text fill="#000000" font-family="sans-serif" font-size="11" font-weight="bold" lengthAdjust="spacing" textLength="185" x="89" y="1379.9526">[if any average out of range]</text><line style="stroke:#181818;stroke-width:1.0;" x1="309" x2="351" y1="1406.0078" y2="1406.0078"/><line style="stroke:#181818;stroke-width:1.0;" x1="351" x2="351" y1="1406.0078" y2="1419.0078"/><line style="stroke:#181818;stroke-width:1.0;" x1="310" x2="351" y1="1419.0078" y2="1419.0078"/><polygon fill="#181818" points="320,1415.0078,310,1419.0078,320,1423.0078,316,1419.0078" style="stroke:#181818;stroke-width:1.0;"/><text fill="#000000" font-family="sans-serif" font-size="13" lengthAdjust="spacing" textLength="107" x="316" y="1400.9419">print fault details</text><polygon fill="#181818" points="53,1444.1406,43,1448.1406,53,1452.1406,49,1448.1406" style="stroke:#181818;stroke-width:1.0;"/><line style="stroke:#181818;stroke-width:1.0;stroke-dasharray:2.0,2.0;" x1="47" x2="298" y1="1448.1406" y2="1448.1406"/><text fill="#000000" font-family="sans-serif" font-size="13" lengthAdjust="spacing" textLength="136" x="59" y="1443.0747">true (sensor is faulty)</text><line style="stroke:#000000;stroke-width:1.0;stroke-dasharray:2.0,2.0;" x1="10" x2="445" y1="1457.1406" y2="1457.1406"/><polygon fill="#181818" points="53,1475.2734,43,1479.2734,53,1483.2734,49,1479.2734" style="stroke:#181818;stroke-width:1.0;"/><line style="stroke:#181818;stroke-width:1.0;stroke-dasharray:2.0,2.0;" x1="47" x2="298" y1="1479.2734" y2="1479.2734"/><text fill="#000000" font-family="sans-serif" font-size="13" lengthAdjust="spacing" textLength="165" x="59" y="1474.2075">false (sensor is not faulty)</text><!--SRC=[lLR1Zfim4Btp5TCREQpKDZVKLbhjgb8FXQhffQggbHU6OCdOaMrIvUyx1eS08Pi5qaQA26RUp7iJFmyijKh30nC2TR1ZslAKxvYqi45fb7vGqZ8kHv_rbwgoTt-_Hyss60HDQhZxv54HSFEP2Ni81nLM0KijtpEBn_n1StLOdou2rlm8IsIcqYLAQvwITGTxBEolTU6gZC1KvMMGOqzVkEkMiWKw5AWSaZKqMAp1GOOzQ5khezAXFTah6TfMlLBk9da_GsyVTKqmHIzL_5AAgPBZMPBZIPBZvPBZ6qh-zlNTsncQ1x1hebtuKjKlvcXba-M1vv1nOvbC4Jx0z_kVIGnCPc3gn5yUuSr7K9HTR_n20FGvDQnLt0dwbQn_h-gu7kyQw8LtUOyRsYsvfnBvjdYcOWsZEikW8Q-XH5j_1gUXOMvCAfv5AlwtfDpUcS7gRCjDe8KowvfmC8KYsA9jranuDf9Eut1mVqPKq3vtf6ZwUIvzQmtI1KAf7UH4YM8AZm0kB-OQzDPNVlJk-g729d3Osl6kd5RdktIAKqV_xjivzj9UdEJSEHodE7W1oNWHoVZ_aEmuUmxBIGuVeUcMdDD7tHv1oaHQ2HVi1zcJprjfs3DHeHa3gP9USLk8WJ_S5aHAeocKo4mxv9Wyd0PaLNjNCqbJSDorEytfZJbd5Q4pf1D1zFrDeSrRD7L8LmZXyNWm3UYm2b0Ol8J96JtiWgIo9w3hpzbPy1S0]--></g></svg>