<?xml version="1.0" encoding="us-ascii" standalone="no"?><svg xmlns="http://www.w3.org/2000/svg" xmlns:xlink="http://www.w3.org/1999/xlink" contentStyleType="text/css" height="1120px" preserveAspectRatio="none" style="width:800px;height:1120px;background:#FFFFFF;" version="1.1" viewBox="0 0 800 1120" width="800px" zoomAndPan="magnify"><defs/><g><rect fill="#FFFFFF" height="884.3203" style="stroke:#181818;stroke-width:1.0;" width="10" x="86.5" y="75.4297"/><rect fill="none" height="972.5859" style="stroke:#000000;stroke-width:1.5;" width="784" x="10" y="95.4297"/><rect fill="none" height="135.6641" style="stroke:#000000;stroke-width:1.5;" width="421.5" x="40" y="161.6953"/><rect fill="none" height="46.2656" style="stroke:#000000;stroke-width:1.5;" width="401.5" x="50" y="244.0938"/><rect fill="none" height="295.1953" style="stroke:#000000;stroke-width:1.5;" width="427" x="20" y="479.8906"/><rect fill="none" height="179.7969" style="stroke:#000000;stroke-width:1.5;" width="407" x="30" y="588.2891"/><rect fill="none" height="148.6641" style="stroke:#000000;stroke-width:1.5;" width="342.5" x="40" y="612.4219"/><rect fill="none" height="59.2656" style="stroke:#000000;stroke-width:1.5;" width="220.5" x="50" y="694.8203"/><rect fill="none" height="229.7969" style="stroke:#000000;stroke-width:1.5;" width="734" x="50" y="831.2188"/><line style="stroke:#181818;stroke-width:0.5;stroke-dasharray:5.0,5.0;" x1="91" x2="91" y1="36.2969" y2="1085.0156"/><line style="stroke:#181818;stroke-width:0.5;stroke-dasharray:5.0,5.0;" x1="317.5" x2="317.5" y1="36.2969" y2="1085.0156"/><line style="stroke:#181818;stroke-width:0.5;stroke-dasharray:5.0,5.0;" x1="411.5" x2="411.5" y1="36.2969" y2="1085.0156"/><rect fill="#E2E2F0" height="30.2969" rx="2.5" ry="2.5" style="stroke:#181818;stroke-width:0.5;" width="63" x="60" y="5"/><text fill="#000000" font-family="sans-serif" font-size="14" lengthAdjust="spacing" textLength="49" x="67" y="24.9951">Sensor</text><rect fill="#E2E2F0" height="30.2969" rx="2.5" ry="2.5" style="stroke:#181818;stroke-width:0.5;" width="63" x="60" y="1084.0156"/><text fill="#000000" font-family="sans-serif" font-size="14" lengthAdjust="spacing" textLength="49" x="67" y="1104.0107">Sensor</text><rect fill="#E2E2F0" height="30.2969" rx="2.5" ry="2.5" style="stroke:#181818;stroke-width:0.5;" width="110" x="262.5" y="5"/><text fill="#000000" font-family="sans-serif" font-size="14" lengthAdjust="spacing" textLength="96" x="269.5" y="24.9951">Measurement</text><rect fill="#E2E2F0" height="30.2969" rx="2.5" ry="2.5" style="stroke:#181818;stroke-width:0.5;" width="110" x="262.5" y="1084.0156"/><text fill="#000000" font-family="sans-serif" font-size="14" lengthAdjust="spacing" textLength="96" x="269.5" y="1104.0107">Measurement</text><rect fill="#E2E2F0" height="30.2969" rx="2.5" ry="2.5" style="stroke:#181818;stroke-width:0.5;" width="59" x="382.5" y="5"/><text fill="#000000" font-family="sans-serif" font-size="14" lengthAdjust="spacing" textLength="45" x="389.5" y="24.9951">Vector</text><rect fill="#E2E2F0" height="30.2969" rx="2.5" ry="2.5" style="stroke:#181818;stroke-width:0.5;" width="59" x="382.5" y="1084.0156"/><text fill="#000000" font-family="sans-serif" font-size="14" lengthAdjust="spacing" textLength="45" x="389.5" y="1104.0107">Vector</text><rect fill="#FFFFFF" height="884.3203" style="stroke:#181818;stroke-width:1.0;" width="10" x="86.5" y="75.4297"/><line style="stroke:#181818;stroke-width:1.0;" x1="91.5" x2="138.5" y1="62.4297" y2="62.4297"/><line style="stroke:#181818;stroke-width:1.0;" x1="138.5" x2="138.5" y1="62.4297" y2="75.4297"/><line style="stroke:#181818;stroke-width:1.0;" x1="97.5" x2="138.5" y1="75.4297" y2="75.4297"/><polygon fill="#181818" points="107.5,71.4297,97.5,75.4297,107.5,79.4297,103.5,75.4297" style="stroke:#181818;stroke-width:1.0;"/><text fill="#000000" font-family="sans-serif" font-size="13" lengthAdjust="spacing" textLength="100" x="103.5" y="57.3638">IsFalty(sensors)</text><path d="M10,95.4297 L87,95.4297 L87,102.5625 L77,112.5625 L10,112.5625 L10,95.4297 " fill="#EEEEEE" style="stroke:#000000;stroke-width:1.5;"/><rect fill="none" height="972.5859" style="stroke:#000000;stroke-width:1.5;" width="784" x="10" y="95.4297"/><text fill="#000000" font-family="sans-serif" font-size="13" font-weight="bold" lengthAdjust="spacing" textLength="32" x="25" y="108.4966">loop</text><text fill="#000000" font-family="sans-serif" font-size="11" font-weight="bold" lengthAdjust="spacing" textLength="99" x="102" y="107.6401">[through types]</text><line style="stroke:#181818;stroke-width:1.0;" x1="96.5" x2="138.5" y1="133.6953" y2="133.6953"/><line style="stroke:#181818;stroke-width:1.0;" x1="138.5" x2="138.5" y1="133.6953" y2="146.6953"/><line style="stroke:#181818;stroke-width:1.0;" x1="97.5" x2="138.5" y1="146.6953" y2="146.6953"/><polygon fill="#181818" points="107.5,142.6953,97.5,146.6953,107.5,150.6953,103.5,146.6953" style="stroke:#181818;stroke-width:1.0;"/><text fill="#000000" font-family="sans-serif" font-size="13" lengthAdjust="spacing" textLength="115" x="103.5" y="128.6294">initialize moyenne</text><path d="M40,161.6953 L117,161.6953 L117,168.8281 L107,178.8281 L40,178.8281 L40,161.6953 " fill="#EEEEEE" style="stroke:#000000;stroke-width:1.5;"/><rect fill="none" height="135.6641" style="stroke:#000000;stroke-width:1.5;" width="421.5" x="40" y="161.6953"/><text fill="#000000" font-family="sans-serif" font-size="13" font-weight="bold" lengthAdjust="spacing" textLength="32" x="55" y="174.7622">loop</text><text fill="#000000" font-family="sans-serif" font-size="11" font-weight="bold" lengthAdjust="spacing" textLength="158" x="132" y="173.9058">[through measurements]</text><polygon fill="#181818" points="305.5,195.9609,315.5,199.9609,305.5,203.9609,309.5,199.9609" style="stroke:#181818;stroke-width:1.0;"/><line style="stroke:#181818;stroke-width:1.0;" x1="96.5" x2="311.5" y1="199.9609" y2="199.9609"/><text fill="#000000" font-family="sans-serif" font-size="13" lengthAdjust="spacing" textLength="100" x="103.5" y="194.895">getAttributeID()</text><polygon fill="#181818" points="305.5,225.0938,315.5,229.0938,305.5,233.0938,309.5,229.0938" style="stroke:#181818;stroke-width:1.0;"/><line style="stroke:#181818;stroke-width:1.0;" x1="96.5" x2="311.5" y1="229.0938" y2="229.0938"/><text fill="#000000" font-family="sans-serif" font-size="13" lengthAdjust="spacing" textLength="67" x="103.5" y="224.0278">getValue()</text><path d="M50,244.0938 L114,244.0938 L114,251.2266 L104,261.2266 L50,261.2266 L50,244.0938 " fill="#EEEEEE" style="stroke:#000000;stroke-width:1.5;"/><rect fill="none" height="46.2656" style="stroke:#000000;stroke-width:1.5;" width="401.5" x="50" y="244.0938"/><text fill="#000000" font-family="sans-serif" font-size="13" font-weight="bold" lengthAdjust="spacing" textLength="19" x="65" y="257.1606">alt</text><text fill="#000000" font-family="sans-serif" font-size="11" font-weight="bold" lengthAdjust="spacing" textLength="123" x="129" y="256.3042">[if AttributeID == t]</text><polygon fill="#181818" points="400,278.3594,410,282.3594,400,286.3594,404,282.3594" style="stroke:#181818;stroke-width:1.0;"/><line style="stroke:#181818;stroke-width:1.0;" x1="96.5" x2="406" y1="282.3594" y2="282.3594"/><text fill="#000000" font-family="sans-serif" font-size="13" lengthAdjust="spacing" textLength="146" x="103.5" y="277.2935">push back to moyenne</text><line style="stroke:#181818;stroke-width:1.0;" x1="96.5" x2="138.5" y1="325.4922" y2="325.4922"/><line style="stroke:#181818;stroke-width:1.0;" x1="138.5" x2="138.5" y1="325.4922" y2="338.4922"/><line style="stroke:#181818;stroke-width:1.0;" x1="97.5" x2="138.5" y1="338.4922" y2="338.4922"/><polygon fill="#181818" points="107.5,334.4922,97.5,338.4922,107.5,342.4922,103.5,338.4922" style="stroke:#181818;stroke-width:1.0;"/><text fill="#000000" font-family="sans-serif" font-size="13" lengthAdjust="spacing" textLength="202" x="103.5" y="320.4263">calculate moyenneMeasurment</text><line style="stroke:#181818;stroke-width:1.0;" x1="96.5" x2="138.5" y1="367.625" y2="367.625"/><line style="stroke:#181818;stroke-width:1.0;" x1="138.5" x2="138.5" y1="367.625" y2="380.625"/><line style="stroke:#181818;stroke-width:1.0;" x1="97.5" x2="138.5" y1="380.625" y2="380.625"/><polygon fill="#181818" points="107.5,376.625,97.5,380.625,107.5,384.625,103.5,380.625" style="stroke:#181818;stroke-width:1.0;"/><text fill="#000000" font-family="sans-serif" font-size="13" lengthAdjust="spacing" textLength="91" x="103.5" y="362.5591">initialize rayon</text><line style="stroke:#181818;stroke-width:1.0;" x1="96.5" x2="138.5" y1="409.7578" y2="409.7578"/><line style="stroke:#181818;stroke-width:1.0;" x1="138.5" x2="138.5" y1="409.7578" y2="422.7578"/><line style="stroke:#181818;stroke-width:1.0;" x1="97.5" x2="138.5" y1="422.7578" y2="422.7578"/><polygon fill="#181818" points="107.5,418.7578,97.5,422.7578,107.5,426.7578,103.5,422.7578" style="stroke:#181818;stroke-width:1.0;"/><text fill="#000000" font-family="sans-serif" font-size="13" lengthAdjust="spacing" textLength="101" x="103.5" y="404.6919">initialize nbCapt</text><line style="stroke:#181818;stroke-width:1.0;" x1="96.5" x2="138.5" y1="451.8906" y2="451.8906"/><line style="stroke:#181818;stroke-width:1.0;" x1="138.5" x2="138.5" y1="451.8906" y2="464.8906"/><line style="stroke:#181818;stroke-width:1.0;" x1="97.5" x2="138.5" y1="464.8906" y2="464.8906"/><polygon fill="#181818" points="107.5,460.8906,97.5,464.8906,107.5,468.8906,103.5,464.8906" style="stroke:#181818;stroke-width:1.0;"/><text fill="#000000" font-family="sans-serif" font-size="13" lengthAdjust="spacing" textLength="83" x="103.5" y="446.8247">initialize sum</text><path d="M20,479.8906 L97,479.8906 L97,487.0234 L87,497.0234 L20,497.0234 L20,479.8906 " fill="#EEEEEE" style="stroke:#000000;stroke-width:1.5;"/><rect fill="none" height="295.1953" style="stroke:#000000;stroke-width:1.5;" width="427" x="20" y="479.8906"/><text fill="#000000" font-family="sans-serif" font-size="13" font-weight="bold" lengthAdjust="spacing" textLength="32" x="35" y="492.9575">loop</text><text fill="#000000" font-family="sans-serif" font-size="11" font-weight="bold" lengthAdjust="spacing" textLength="114" x="112" y="492.1011">[through sensors]</text><line style="stroke:#181818;stroke-width:1.0;" x1="96.5" x2="138.5" y1="518.1563" y2="518.1563"/><line style="stroke:#181818;stroke-width:1.0;" x1="138.5" x2="138.5" y1="518.1563" y2="531.1563"/><line style="stroke:#181818;stroke-width:1.0;" x1="97.5" x2="138.5" y1="531.1563" y2="531.1563"/><polygon fill="#181818" points="107.5,527.1563,97.5,531.1563,107.5,535.1563,103.5,531.1563" style="stroke:#181818;stroke-width:1.0;"/><text fill="#000000" font-family="sans-serif" font-size="13" lengthAdjust="spacing" textLength="64" x="103.5" y="513.0903">distance()</text><line style="stroke:#181818;stroke-width:1.0;" x1="96.5" x2="138.5" y1="560.2891" y2="560.2891"/><line style="stroke:#181818;stroke-width:1.0;" x1="138.5" x2="138.5" y1="560.2891" y2="573.2891"/><line style="stroke:#181818;stroke-width:1.0;" x1="97.5" x2="138.5" y1="573.2891" y2="573.2891"/><polygon fill="#181818" points="107.5,569.2891,97.5,573.2891,107.5,577.2891,103.5,573.2891" style="stroke:#181818;stroke-width:1.0;"/><text fill="#000000" font-family="sans-serif" font-size="13" lengthAdjust="spacing" textLength="89" x="103.5" y="555.2231">getSensorID()</text><path d="M30,588.2891 L94,588.2891 L94,595.4219 L84,605.4219 L30,605.4219 L30,588.2891 " fill="#EEEEEE" style="stroke:#000000;stroke-width:1.5;"/><rect fill="none" height="179.7969" style="stroke:#000000;stroke-width:1.5;" width="407" x="30" y="588.2891"/><text fill="#000000" font-family="sans-serif" font-size="13" font-weight="bold" lengthAdjust="spacing" textLength="19" x="45" y="601.356">alt</text><text fill="#000000" font-family="sans-serif" font-size="11" font-weight="bold" lengthAdjust="spacing" textLength="323" x="109" y="600.4995">[if distance &lt; rayon &amp;&amp; SensorID != this SensorID]</text><path d="M40,612.4219 L117,612.4219 L117,619.5547 L107,629.5547 L40,629.5547 L40,612.4219 " fill="#EEEEEE" style="stroke:#000000;stroke-width:1.5;"/><rect fill="none" height="148.6641" style="stroke:#000000;stroke-width:1.5;" width="342.5" x="40" y="612.4219"/><text fill="#000000" font-family="sans-serif" font-size="13" font-weight="bold" lengthAdjust="spacing" textLength="32" x="55" y="625.4888">loop</text><text fill="#000000" font-family="sans-serif" font-size="11" font-weight="bold" lengthAdjust="spacing" textLength="222" x="132" y="624.6323">[through measurements of sensor]</text><polygon fill="#181818" points="305.5,646.6875,315.5,650.6875,305.5,654.6875,309.5,650.6875" style="stroke:#181818;stroke-width:1.0;"/><line style="stroke:#181818;stroke-width:1.0;" x1="96.5" x2="311.5" y1="650.6875" y2="650.6875"/><text fill="#000000" font-family="sans-serif" font-size="13" lengthAdjust="spacing" textLength="100" x="103.5" y="645.6216">getAttributeID()</text><polygon fill="#181818" points="305.5,675.8203,315.5,679.8203,305.5,683.8203,309.5,679.8203" style="stroke:#181818;stroke-width:1.0;"/><line style="stroke:#181818;stroke-width:1.0;" x1="96.5" x2="311.5" y1="679.8203" y2="679.8203"/><text fill="#000000" font-family="sans-serif" font-size="13" lengthAdjust="spacing" textLength="67" x="103.5" y="674.7544">getValue()</text><path d="M50,694.8203 L114,694.8203 L114,701.9531 L104,711.9531 L50,711.9531 L50,694.8203 " fill="#EEEEEE" style="stroke:#000000;stroke-width:1.5;"/><rect fill="none" height="59.2656" style="stroke:#000000;stroke-width:1.5;" width="220.5" x="50" y="694.8203"/><text fill="#000000" font-family="sans-serif" font-size="13" font-weight="bold" lengthAdjust="spacing" textLength="19" x="65" y="707.8872">alt</text><text fill="#000000" font-family="sans-serif" font-size="11" font-weight="bold" lengthAdjust="spacing" textLength="123" x="129" y="707.0308">[if AttributeID == t]</text><line style="stroke:#181818;stroke-width:1.0;" x1="96.5" x2="138.5" y1="733.0859" y2="733.0859"/><line style="stroke:#181818;stroke-width:1.0;" x1="138.5" x2="138.5" y1="733.0859" y2="746.0859"/><line style="stroke:#181818;stroke-width:1.0;" x1="97.5" x2="138.5" y1="746.0859" y2="746.0859"/><polygon fill="#181818" points="107.5,742.0859,97.5,746.0859,107.5,750.0859,103.5,746.0859" style="stroke:#181818;stroke-width:1.0;"/><text fill="#000000" font-family="sans-serif" font-size="13" lengthAdjust="spacing" textLength="155" x="103.5" y="728.02">update sum and nbCapt</text><line style="stroke:#181818;stroke-width:1.0;" x1="96.5" x2="138.5" y1="803.2188" y2="803.2188"/><line style="stroke:#181818;stroke-width:1.0;" x1="138.5" x2="138.5" y1="803.2188" y2="816.2188"/><line style="stroke:#181818;stroke-width:1.0;" x1="97.5" x2="138.5" y1="816.2188" y2="816.2188"/><polygon fill="#181818" points="107.5,812.2188,97.5,816.2188,107.5,820.2188,103.5,816.2188" style="stroke:#181818;stroke-width:1.0;"/><text fill="#000000" font-family="sans-serif" font-size="13" lengthAdjust="spacing" textLength="183" x="103.5" y="798.1528">calculate moyenneVoisinage</text><path d="M50,831.2188 L114,831.2188 L114,838.3516 L104,848.3516 L50,848.3516 L50,831.2188 " fill="#EEEEEE" style="stroke:#000000;stroke-width:1.5;"/><rect fill="none" height="229.7969" style="stroke:#000000;stroke-width:1.5;" width="734" x="50" y="831.2188"/><text fill="#000000" font-family="sans-serif" font-size="13" font-weight="bold" lengthAdjust="spacing" textLength="19" x="65" y="844.2856">alt</text><text fill="#000000" font-family="sans-serif" font-size="11" font-weight="bold" lengthAdjust="spacing" textLength="650" x="129" y="843.4292">[if moyenneMeasurment &lt; 0.5 * moyenneVoisinage or moyenneMeasurment &gt; 2 * moyenneVoisinage]</text><line style="stroke:#181818;stroke-width:1.0;" x1="96.5" x2="138.5" y1="869.4844" y2="869.4844"/><line style="stroke:#181818;stroke-width:1.0;" x1="138.5" x2="138.5" y1="869.4844" y2="882.4844"/><line style="stroke:#181818;stroke-width:1.0;" x1="97.5" x2="138.5" y1="882.4844" y2="882.4844"/><polygon fill="#181818" points="107.5,878.4844,97.5,882.4844,107.5,886.4844,103.5,882.4844" style="stroke:#181818;stroke-width:1.0;"/><text fill="#000000" font-family="sans-serif" font-size="13" lengthAdjust="spacing" textLength="86" x="103.5" y="864.4185">setFalty(true)</text><line style="stroke:#181818;stroke-width:1.0;" x1="96.5" x2="138.5" y1="911.6172" y2="911.6172"/><line style="stroke:#181818;stroke-width:1.0;" x1="138.5" x2="138.5" y1="911.6172" y2="924.6172"/><line style="stroke:#181818;stroke-width:1.0;" x1="97.5" x2="138.5" y1="924.6172" y2="924.6172"/><polygon fill="#181818" points="107.5,920.6172,97.5,924.6172,107.5,928.6172,103.5,924.6172" style="stroke:#181818;stroke-width:1.0;"/><text fill="#000000" font-family="sans-serif" font-size="13" lengthAdjust="spacing" textLength="125" x="103.5" y="906.5513">write to file falty.csv</text><line style="stroke:#181818;stroke-width:1.0;stroke-dasharray:2.0,2.0;" x1="96.5" x2="138.5" y1="958.75" y2="958.75"/><line style="stroke:#181818;stroke-width:1.0;stroke-dasharray:2.0,2.0;" x1="138.5" x2="138.5" y1="958.75" y2="971.75"/><line style="stroke:#181818;stroke-width:1.0;stroke-dasharray:2.0,2.0;" x1="91.5" x2="138.5" y1="971.75" y2="971.75"/><polygon fill="#181818" points="101.5,967.75,91.5,971.75,101.5,975.75,97.5,971.75" style="stroke:#181818;stroke-width:1.0;"/><text fill="#000000" font-family="sans-serif" font-size="13" lengthAdjust="spacing" textLength="26" x="103.5" y="953.6841">true</text><line style="stroke:#000000;stroke-width:1.0;stroke-dasharray:2.0,2.0;" x1="50" x2="784" y1="975.75" y2="975.75"/><line style="stroke:#181818;stroke-width:1.0;" x1="91.5" x2="133.5" y1="997.8828" y2="997.8828"/><line style="stroke:#181818;stroke-width:1.0;" x1="133.5" x2="133.5" y1="997.8828" y2="1010.8828"/><line style="stroke:#181818;stroke-width:1.0;" x1="92.5" x2="133.5" y1="1010.8828" y2="1010.8828"/><polygon fill="#181818" points="102.5,1006.8828,92.5,1010.8828,102.5,1014.8828,98.5,1010.8828" style="stroke:#181818;stroke-width:1.0;"/><text fill="#000000" font-family="sans-serif" font-size="13" lengthAdjust="spacing" textLength="125" x="98.5" y="992.8169">write to file falty.csv</text><line style="stroke:#181818;stroke-width:1.0;stroke-dasharray:2.0,2.0;" x1="91.5" x2="133.5" y1="1040.0156" y2="1040.0156"/><line style="stroke:#181818;stroke-width:1.0;stroke-dasharray:2.0,2.0;" x1="133.5" x2="133.5" y1="1040.0156" y2="1053.0156"/><line style="stroke:#181818;stroke-width:1.0;stroke-dasharray:2.0,2.0;" x1="92.5" x2="133.5" y1="1053.0156" y2="1053.0156"/><polygon fill="#181818" points="102.5,1049.0156,92.5,1053.0156,102.5,1057.0156,98.5,1053.0156" style="stroke:#181818;stroke-width:1.0;"/><text fill="#000000" font-family="sans-serif" font-size="13" lengthAdjust="spacing" textLength="30" x="98.5" y="1034.9497">false</text><!--SRC=[hLJHIiCm57tlLrnVnYOuHF15T22Ai0UVXBrdxUqQJ9EGt4pgrvisRMriD-SmBssJSm_tddCQpGpnb6ic2TvGMcKIFTXwHMQTmH8bHViRJCb3ar02Lwks6EvWRL-Oe6fkcmsxI5XAVCy8E_v4AAM12gFShW2gDDe4_9hWuf8JPu9_8fIgGYcnGKO4vNUBWIVc6apW2NT8ZqI6RntX-dc-EALWmuJ30THF1po70GyyF03rvp5TKCepQMSBsBBq7KX5qzGBPPPqpqDYf4oaJjH2jjMXqyQRt_Kph5Bo19pSFZ5z2g5rPJ9setLzGjUU8-EMc4nnKlqUvOKFxv5DhVOT1To7kM0sWmuD5zwCWjj-8pBcO7H0vMtp4VwiC9qHgh-4wuXgJcTrGBmtm6GsD7EukhHDVP-Ln8tYbaksmr3I3Z6AgRVhUdaBbwCoyBHZz0fk9h37GcEHmkL3nk7HU7qOxjltVsBE1K9U5orJk-zB398p4cgU88Um-0zy_g3bgVLjDCxmnmNv1G00]--></g></svg>